<?xml version="1.0" encoding="utf-8"?>
<!-- Generator: Adobe Illustrator 27.5.0, SVG Export Plug-In . SVG Version: 6.00 Build 0)  -->
<svg version="1.1" xmlns="http://www.w3.org/2000/svg" xmlns:xlink="http://www.w3.org/1999/xlink" x="0px" y="0px"
	 viewBox="0 0 750 500" style="enable-background:new 0 0 750 500;" xml:space="preserve">
<g id="BACKGROUND">
	<linearGradient id="SVGID_1_" gradientUnits="userSpaceOnUse" x1="685.155" y1="560.155" x2="115.8087" y2="-9.1912">
		<stop  offset="0" style="stop-color:#2E3192"/>
		<stop  offset="0.4875" style="stop-color:#1652A8"/>
		<stop  offset="1" style="stop-color:#0071BC"/>
	</linearGradient>
	<rect style="fill:url(#SVGID_1_);" width="750" height="500"/>
</g>
<g id="OBJECTS">
	<g>
		<defs>
			<rect id="SVGID_00000157987061510968806050000016687508125718373261_" width="750" height="500"/>
		</defs>
		<clipPath id="SVGID_00000181084891926056962220000003653218014444464519_">
			<use xlink:href="#SVGID_00000157987061510968806050000016687508125718373261_"  style="overflow:visible;"/>
		</clipPath>
		<g style="clip-path:url(#SVGID_00000181084891926056962220000003653218014444464519_);">
			<g>
				<path style="fill:none;stroke:#29ABE2;stroke-width:2;stroke-miterlimit:10;stroke-dasharray:4,6,4,6;" d="M-98.727,156.558
					C-90.118,205.962-49.97,246.3-2.89,263.575c12.986,4.765,26.713,8.032,40.538,7.581c28.573-0.931,53.939-17.253,79.562-29.932
					c16.334-8.083,34.299-14.79,52.726-15.173c7.032-0.146,17.17-0.01,23.499,3.549c6.522,3.668,8.106,11.74,12.525,17.295
					c10.513,13.217,33.245,7.491,46.189,18.337c6.222,5.214,9.028,13.343,11.566,21.055c6.402,19.454,13.156,39.457,26.606,54.902
					c17.512,20.11,49.005,27.091,74.035,19.607c12.446-3.721,24.546-8.598,36.094-14.547c12.722-6.554,24.954-14.479,38.775-18.193
					c19.499-5.241,40.756-1.45,58.654,7.896c53.234,27.798,75.034,102.759,61.641,158.456c-2.496,10.38-6.085,20.46-9.111,30.698
					c-6.224,21.056-10.076,42.978-9.293,64.921c0.783,21.943,6.356,43.952,17.91,62.622"/>
				<path style="fill:none;stroke:#29ABE2;stroke-width:2;stroke-miterlimit:10;stroke-dasharray:4,6,4,6;" d="M571.082-25.291
					c-3.44,26.487-12.493,52.486-28.066,74.186c-15.573,21.7-37.88,38.899-63.504,46.438c-21.909,6.446-46.662,6.269-65.005,19.873
					c-15.74,11.674-23.64,32.322-21.844,51.836c1.796,19.514,12.526,37.616,27.395,50.381
					c13.821,11.865,30.974,19.441,44.391,31.761c21.917,20.123,31.503,52.719,23.97,81.503"/>
				<path style="fill:none;stroke:#29ABE2;stroke-width:2;stroke-miterlimit:10;stroke-dasharray:4,6,4,6;" d="M472.421,255.163
					c16.139-21.281,33.689-43.627,58.83-52.64c11.878-4.259,24.683-5.198,37.301-5.242c39.46-0.138,80.732,9.108,110.198,35.354
					c11.487,10.231,21.355,23.09,35.594,28.911c10.61,4.337,22.48,4.222,33.903,3.268c16.429-1.372,33.532-4.701,46.248-15.194
					c13.331-11.001,19.896-28.245,31.918-40.664c20.824-21.511,58.2-24.122,81.812-5.714"/>
				<path style="fill:none;stroke:#29ABE2;stroke-width:2;stroke-miterlimit:10;stroke-dasharray:4,6,4,6;" d="M300.577,349.894
					c-3.268,19.417-12.84,37.723-26.921,51.486c-14.285,13.963-32.771,23.127-46.654,37.49
					c-22.574,23.355-30.224,58.739-23.931,90.605c6.293,31.866,25.214,60.26,49.004,82.375"/>
				<path style="fill:none;stroke:#29ABE2;stroke-width:2;stroke-miterlimit:10;stroke-dasharray:4,6,4,6;" d="M166.324,226.338
					c8.584-10.479,5.732-26.488-1.34-38.042c-7.072-11.554-17.614-20.637-24.952-32.024c-10.231-15.876-13.604-36.014-9.105-54.357
					c7.541-30.743,35.337-54.43,39.027-85.868c1.423-12.124-0.95-24.404-4.558-36.066c-6.2-20.038-16.582-39.496-33.244-52.238"/>
				<path style="fill:none;stroke:#29ABE2;stroke-width:2;stroke-miterlimit:10;stroke-dasharray:4,6,4,6;" d="M520.241,73.353
					c25.935,11.352,57.165,13.876,81.984,0.256c5.98-3.282,11.454-7.407,17.306-10.913c5.906-3.539,12.173-6.434,18.512-9.121
					c19.012-8.061,40.366-14.353,60.078-8.201c18.834,5.878,33.521,22.403,52.981,25.655c20.314,3.395,39.716-8.486,56.892-19.853"
					/>
				<path style="fill:none;stroke:#29ABE2;stroke-width:2;stroke-miterlimit:10;stroke-dasharray:4,6,4,6;" d="M556.877,411.861
					c41.445-13.738,89.627-4.934,123.535,22.574c9.082,7.368,17.127,15.912,25.71,23.855c22.148,20.497,48.373,37.176,77.499,45.072
					c29.126,7.895,61.301,6.481,88.219-7.159"/>
			</g>
			<path style="fill:none;stroke:#65C8D0;stroke-width:4;stroke-miterlimit:10;" d="M-29.868,209.367
				c27.726,31.461,76.583,46.808,113.338,26.619c30.654-16.838,51.306-56.989,89.417-59.818c8.741-0.649,18.002,0.832,24.971,6.148
				c11.984,9.142,14.939,27.561,28.212,34.704c8.818,4.745,19.672,3.031,29.323,5.701c11.029,3.051,19.812,11.751,25.434,21.719
				c13.607,24.123,19.235,49.849,41.718,68.798c15.662,13.2,38.897,19.62,57.001,10.041c12.26-6.487,21.194-19.536,34.831-22.071
				c4.506-0.838,9.213-0.423,13.631-1.642c10.325-2.849,16.519-14.487,15.626-25.16c-0.893-10.674-7.494-20.15-15.538-27.222
				c-8.044-7.072-17.568-12.2-26.562-18.016c-29.644-19.168-54.966-38.536-55.119-76.095c-0.03-7.306,0.434-14.704,2.643-21.668
				c8.261-26.04,49.688-45.015,74.853-47.998c5.014-0.594,10.094-0.202,15.132-0.548c25.71-1.767,47.701-24.679,50.274-50.32
				c2.574-25.642-13.168-51.57-36.303-62.923c-11.252-5.522-23.831-7.898-35.133-13.32c-13.513-6.483-24.901-17.176-39.07-22.061
				c-5.83-2.01-12-2.982-17.711-5.309c-12.254-4.992-21.159-15.625-29.484-25.909c-12.23-15.107-24.707-30.644-41.397-40.604
				c-23.951-14.294-53.587-15.277-81.269-11.861c-27.682,3.416-54.904,10.808-82.777,11.825
				c-45.843,1.673-94.145-13.601-136.28,4.537c-40.64,17.496-80.576,75.319-75.453,120.793C-83.457,6.365-73.491,23.21-71.22,42.107
				c3.515,29.255,0.589,58.687,5.885,87.87C-60.108,158.777-49.435,187.164-29.868,209.367z"/>
			<path style="fill:none;stroke:#65C8D0;stroke-width:4;stroke-miterlimit:10;" d="M631.038,541.529
				c21.913,24.969,52.776,37.681,86.027,40.73c30.854,2.829,65.942,12.953,95.309-2.611c30.786-16.318,41.67-53.689,43.845-87.417
				c2.285-35.434-1.749-70.921-4.856-106.297c-5.358-61.021-7.955-122.605-0.108-183.377c6.969-53.972,22.123-108.65,10.802-161.936
				c-4.225-19.887-13.673-40.74-32.637-49.667c-8.34-3.926-17.735-5.142-26.943-6.306c-48.864-6.175-102.24-19.48-141.3,18.816
				c-18.598,18.235-28.068,43.026-40.619,65.533c-12.551,22.507-30.946,44.763-56.949,49.994
				c-30.382,6.112-62.787-12.791-92.153-3.123c-14.66,4.827-26.506,16.902-30.659,31.253c-4.153,14.35-0.495,30.571,9.466,41.981
				c13.604,15.583,37.068,21.698,48.381,38.89c13.884,21.099,4.923,52.199,22.421,70.648c12.247,12.913,32.648,14.289,48.688,22.513
				c14.125,7.242,24.575,19.727,32.852,32.899c7.49,11.921,13.648,25.109,14.099,39.028c0.537,16.596-7.005,32.315-10.863,48.5
				C597.582,476.219,607.199,514.366,631.038,541.529z"/>
			<path style="fill:none;stroke:#65C8D0;stroke-width:4;stroke-miterlimit:10;" d="M0.777,316.498
				c23.411,3.155,46.549-6.92,66.911-18.896c20.362-11.976,39.836-26.27,62.49-32.966c22.654-6.696,50.172-3.909,65.463,14.098
				c13.659,16.084,14.725,40.482,29.514,55.534c20.102,20.459,59.552,17.628,72.228,43.357c3.025,6.141,3.977,13.215,7.545,19.057
				c3.074,5.034,7.892,8.788,13.03,11.685c19.832,11.181,45.985,10.026,64.755-2.86c11.969-8.217,20.79-20.516,33.138-28.152
				c22.824-14.114,54.68-8.55,74.231,9.832c19.551,18.382,27.328,47.147,23.92,73.765c-3.459,27.019-17.183,54.834-7.197,80.177
				c1.842,4.675,4.498,9.256,4.465,14.281c-0.028,4.304-2.048,8.331-4.267,12.019c-17.441,28.981-51.206,47.345-85.012,46.237
				c-27.505-0.902-53.042-13.478-79.206-22.008c-54.666-17.822-114.94-17.981-169.7-0.449
				c-31.567,10.107-61.007,25.789-91.463,38.867c-24.005,10.308-49.19,19.114-75.3,20.006c-26.109,0.893-53.495-7.056-71.434-26.047
				c-26.356-27.903-26.382-71.357-19.52-109.121s18.995-76.155,11.274-113.753c-4.102-19.975-13.62-38.386-19.738-57.838
				c-6.118-19.452-8.54-41.573,1.161-59.509c10.033-18.549,30.856-22.213,43.853-6.037C-33.14,296.373-26.535,312.817,0.777,316.498
				z"/>
			<path style="fill:none;stroke:#65C8D0;stroke-width:3;stroke-miterlimit:10;" d="M-48.179-45.387
				c-3.46,25.879,5.018,51.689,7.796,77.649c4.831,45.149-6.783,94.758,16.882,133.51c19.534,31.988,62.559,47.342,97.932,34.949
				c24.245-8.494,43.073-27.618,65.315-40.475c22.241-12.856,53.337-18.088,71.632-0.053c8.734,8.61,13.407,21.551,24.254,27.275
				c10.162,5.363,22.659,2.707,33.796,5.535c22.463,5.704,33.03,30.765,41.046,52.511c8.017,21.746,20.622,46.497,43.603,49.496
				c6.785,0.885,13.693-0.371,20.213-2.445c5.837-1.857,11.779-4.632,15.147-9.748c5.169-7.854,2.468-18.789-3.342-26.182
				c-5.81-7.393-14.117-12.3-21.605-17.986c-24.997-18.978-41.979-49.117-42.259-80.501c-0.28-31.384,17.397-62.991,45.639-76.682
				c22.938-11.12,52.849-11.848,67.923-32.404c13.958-19.034,6.908-47.962-10.768-63.603c-25.246-22.34-64.007-21.347-92.228-39.786
				c-29.322-19.159-44.419-57.413-77.084-70.057c-39.048-15.114-81.061,13.723-122.925,14.471
				c-22.756,0.406-44.742-7.572-67.242-11.002C13.558-128.838-40.714-101.212-48.179-45.387z"/>
			<path style="fill:none;stroke:#65C8D0;stroke-width:3;stroke-miterlimit:10;" d="M-53.171,467.39
				c-3.711,16.905-8.333,33.763-8.984,51.058c-0.82,21.809,4.891,43.823,16.212,62.482c8.79,14.487,21.78,27.452,38.244,31.46
				c25.486,6.204,50.317-9.966,73.105-22.956c89.469-51.004,201.529-60.487,298.297-25.242
				c16.839,6.133,33.647,13.634,51.553,14.375c17.906,0.742,37.671-7.267,44.429-23.865c5.65-13.877,1.005-29.549,1.054-44.532
				c0.063-19.5,8.196-38.071,10.473-57.437s-4.016-42.574-22.27-49.433c-16.737-6.289-35.088,4.114-48.148,16.326
				c-13.06,12.212-24.796,27.173-41.725,32.924c-17.276,5.869-37.912-0.084-49.408-14.252c-7.911-9.75-11.433-22.376-18.674-32.634
				c-8.684-12.304-22.773-20.643-37.737-22.337c-18.017-2.04-38.32,4.621-53.19-5.755c-21.346-14.895-13.922-52.828-35.346-67.61
				c-9.36-6.458-21.975-6.355-32.802-2.878c-10.827,3.477-20.409,9.909-30.243,15.62c-19.753,11.471-41.427,20.355-64.175,22.426
				c-21.91,1.995-42.507-3.101-60.984-14.841c-14.595-9.273-27.174-15.132-37.292,4.618c-9.939,19.403,6.158,37.282,10.661,55.87
				C-44.032,415.918-47.707,442.497-53.171,467.39z"/>
			<path style="fill:none;stroke:#65C8D0;stroke-width:3;stroke-miterlimit:10;" d="M660.073,67.252
				c-11.739,26.055-24.498,54.885-51.123,67.181c-31.232,14.423-67.92,0.195-102.57,0.074c-7.471-0.026-15.525,0.852-21.098,5.634
				c-12.112,10.393-3.898,30.269,8.411,40.446c12.309,10.177,28.574,17.367,35.162,31.631c10.034,21.727-5.835,52.892,13.254,68.005
				c10.822,8.568,26.652,5.979,40.521,7.954c27.268,3.883,48.285,27.256,55.573,52.81c7.288,25.554,3.174,52.831-3.623,78.509
				c-4.244,16.033-9.565,32.427-7.104,48.801c5.258,34.988,44.097,56.553,80.565,61.129c20.541,2.578,42.012,1.377,61.008-6.565
				c18.996-7.943,35.23-23.232,40.898-42.384c3.386-11.44,2.945-23.571,2.13-35.439c-2.935-42.778-10.36-85.369-9.324-128.228
				c1.252-51.755,14.792-102.42,22.181-153.7c4.555-31.614,6.687-64.379-2.825-94.957c-9.512-30.578-32.639-58.824-64.555-67.623
				C708.872-12.892,676.86,29.994,660.073,67.252z"/>
			<path style="fill:none;stroke:#FFFFFF;stroke-width:2;stroke-miterlimit:10;" d="M-34.578,475.127
				c-3.846,18.777-7.045,38.104-4.047,57.035c2.998,18.931,13.189,37.652,30.228,46.43c22.666,11.678,50.502,3.175,72.78-9.227
				c22.279-12.402,43.191-28.814,68.214-33.711c12.634-2.472,25.697-2.057,38.259-4.944c10.295-2.366,17.408-6.163,28.314-5.017
				c24.851,2.611,51.94-6.899,65.572-27.841c13.632-20.942,9.293-53.149-12.094-66.071c-22.614-13.664-55.763-3.975-74.809-22.288
				c-18.141-17.442-10.274-57.65-43.492-60.27c-14.861-1.172-27.237,10.289-39.099,19.318
				c-12.828,9.764-27.588,17.549-43.556,19.769c-15.332,2.132-31.534-1.393-43.556-11.411c-10.678-8.898-19.306-20.384-32.204-6.211
				c-11.354,12.477-3.27,29.484-2.594,44.195C-25.724,435.296-30.511,455.273-34.578,475.127z"/>
			<path style="fill:none;stroke:#FFFFFF;stroke-width:2;stroke-miterlimit:10;" d="M22.029,406.234
				c-10.352-8.158-22.57-14.424-30.002,1.588c-8.562,18.448-0.887,43.096-3.771,62.848c-2.551,17.471-10.273,34.577-7.981,52.084
				c2.474,18.893,18.319,35.67,37.262,37.729c11.259,1.224,22.486-2.377,32.87-6.898c20.762-9.039,39.64-21.853,59.75-32.261
				c20.111-10.408,42.292-18.534,64.886-17.017c9.762,0.655,19.346,3.099,29.116,3.611c9.771,0.512,20.234-1.207,27.546-7.707
				c8.584-7.631,10.851-21.457,5.154-31.43c-7.055-12.35-22.65-16.438-36.667-18.852c-14.017-2.414-29.535-5.091-38.344-16.258
				c-6.877-8.719-7.886-20.503-10.91-31.189c-3.024-10.685-10.217-22.063-21.296-22.812c-10.668-0.722-18.928,8.533-26.741,15.831
				c-10.829,10.115-24.208,17.844-38.807,20.385S33.667,415.406,22.029,406.234z"/>
			<path style="fill:none;stroke:#FFFFFF;stroke-width:2;stroke-miterlimit:10;" d="M1.369,496.405
				c-2.287,9.438-5.013,19.998-0.061,28.353c6.04,10.19,20.844,11.536,31.804,7.042c10.96-4.494,19.567-13.182,29.39-19.803
				c21.488-14.483,48.181-18.692,74.022-20.629c15.928-1.194,31.91-1.666,47.881-1.414c3.505,0.055,7.254,0.08,10.186-1.841
				c5.153-3.375,5.104-11.572,1.2-16.337c-3.904-4.765-10.317-6.686-16.441-7.355s-12.381-0.348-18.372-1.782
				c-11.612-2.78-21.242-12.583-23.814-24.243c-2.305-10.448-0.2-23.533-8.807-29.89c-6.83-5.045-16.822-2.336-23.526,2.876
				c-6.704,5.212-11.535,12.503-18.12,17.866c-9.343,7.608-22.162,10.555-33.957,8.419c-10.164-1.841-20.828-13.946-31.187-10.476
				C1.974,433.752,5.201,480.59,1.369,496.405z"/>
			<path style="fill:none;stroke:#FFFFFF;stroke-width:2;stroke-miterlimit:10;" d="M46.936,452.884
				c-3.117-2.132-5.842-5.036-9.459-6.12c-5.589-1.675-11.74,1.722-14.912,6.619c-3.172,4.897-3.964,10.939-4.254,16.766
				c-0.29,5.828-0.174,11.765-1.825,17.361c-0.765,2.593-1.902,5.081-2.413,7.735c-1.103,5.726,1.108,12.084,5.816,15.525
				c4.708,3.441,11.75,3.5,16.248-0.211c5.909-4.876,6.094-13.857,10.224-20.309c3.565-5.57,10.285-8.96,16.884-8.517
				c6.463,0.434,12.49,4.217,18.957,3.861c17.407-0.958,17.815-24.491,3.015-30.267C72.574,450.393,59.973,461.801,46.936,452.884z"
				/>
			<path style="fill:none;stroke:#FFFFFF;stroke-width:2;stroke-miterlimit:10;" d="M100.362,453.451
				c1.001,2.788,2.745,5.267,3.706,8.07c1.182,3.449,1.215,7.44,3.536,10.253c2.442,2.959,6.671,3.671,10.508,3.666
				c3.837-0.005,7.806-0.501,11.41,0.814c2.05,0.748,3.994,2.079,6.174,1.995c3.157-0.12,5.529-3.446,5.393-6.602
				c-0.136-3.157-2.218-5.952-4.751-7.84c-2.533-1.888-5.518-3.049-8.374-4.4c-1.876-0.887-3.778-1.923-4.989-3.609
				c-1.194-1.663-1.575-3.774-1.684-5.819c-0.471-8.835,8.149-26.263-8.358-25.767C99.763,424.609,96.892,443.781,100.362,453.451z"
				/>
			<path style="fill:none;stroke:#FFFFFF;stroke-width:2;stroke-miterlimit:10;" d="M304.264,472.911
				c10.281-1.912,20.36,3.22,30.237,6.656c21.28,7.404,48.296,5.541,61.992-12.348c3.771-4.926,6.275-10.728,10.056-15.647
				c3.781-4.919,9.468-9.075,15.65-8.552c3.822,0.323,7.329,2.426,10.003,5.175c8.184,8.412,8.717,21.653,6.685,33.212
				c-2.032,11.559-6.122,22.966-5.363,34.677c0.321,4.956,1.513,9.894,1.021,14.836c-1.012,10.171-9.46,18.699-19.306,21.444
				c-9.846,2.745-20.633,0.336-29.45-4.835c-7.576-4.443-13.953-10.82-21.843-14.678c-21.891-10.705-50.022,4.418-70.532-8.394
				C273.994,512.326,282.276,477,304.264,472.911z"/>
			<path style="fill:none;stroke:#FFFFFF;stroke-width:2;stroke-miterlimit:10;" d="M347.745,512.987
				c1.035,0.049,2.185-0.061,2.901-0.81c0.665-0.696,0.768-1.751,0.713-2.713c-0.713-12.547-21.194-16.012-29.581-21.166
				c-8.287-5.093-13.161-5.69-18.299,4.417c-3.156,6.209-4.512,16.257,3.005,19.708c6.826,3.134,14.576-4.385,21.293-4.66
				C334.88,507.471,340.745,512.652,347.745,512.987z"/>
			<path style="fill:none;stroke:#FFFFFF;stroke-width:2;stroke-miterlimit:10;" d="M383.269,502.096
				c-3.469,0.811-7.062,1.629-9.918,3.757c-2.858,2.13-4.777,5.974-3.543,9.318c1.279,3.467,5.274,5.069,8.925,5.639
				c3.651,0.57,7.549,0.566,10.726,2.453c3.787,2.248,6.123,6.955,10.438,7.836c5.088,1.039,9.504-4.095,10.632-9.164
				c2.098-9.427,1.448-17.048,5.112-26.032c1.409-3.453,10.863-25.958,2.793-28.127c-3.768-1.012-7.833,0.92-10.437,3.826
				C397.497,483.32,402.777,497.532,383.269,502.096z"/>
			<path style="fill:none;stroke:#65C8D0;stroke-width:3;stroke-miterlimit:10;" d="M-26.932-26.841
				c-1.098,29.001,6.681,57.648,7.43,86.661c0.7,27.118-4.64,55.149,4.05,80.846c9.785,28.935,40.489,51.058,70.58,45.813
				c21.162-3.688,38.061-18.97,56.372-30.202c16.442-10.085,34.723-17.16,53.671-20.77c17.376-3.311,37.163-3.092,50.528,8.498
				c6.418,5.566,11.493,12.599,17.314,18.747c2.089,2.206,4.238,4.458,6.959,5.81c10.528,5.235,24.312-4.914,34.504,0.948
				c3.87,2.226,6.224,6.304,8.489,10.151c4.279,7.268,14.191,16.035,22.979,9.739c10.03-7.185,2.993-27.2,1.439-36.584
				c-5.276-31.857,10.968-66.18,38.949-82.297c9.302-5.358,19.596-8.795,28.996-13.98c9.399-5.185,18.234-12.67,21.572-22.872
				c4.698-14.359-3.002-30.439-14.666-40.041c-11.664-9.602-26.57-14.133-41.052-18.438c-14.482-4.304-29.39-8.825-41.066-18.412
				c-22.068-18.119-29.894-52.048-56.12-63.34c-12.793-5.508-27.565-4.22-40.964-0.414c-13.399,3.807-26.013,9.974-39.286,14.197
				c-16.586,5.277-34.297,7.459-51.536,5.055C82.21-91.91,46.133-112.35,15.474-100.892C-12.47-90.449-25.905-53.96-26.932-26.841z"
				/>
			<path style="fill:none;stroke:#FFFFFF;stroke-width:2;stroke-miterlimit:10;" d="M338.481,261.316
				c2.76,3.491,5.887,6.911,9.99,8.632c4.103,1.721,9.408,1.294,12.306-2.082c2.802-3.264,2.563-8.335,0.534-12.128
				c-2.029-3.793-5.499-6.577-8.946-9.15c-6.394-4.771-13.467-9.409-18.508-15.696c-2.932-3.657-6.213-15.9-10.133-15.46
				C309.299,217.05,334.958,256.86,338.481,261.316z"/>
			<path style="fill:none;stroke:#FFFFFF;stroke-width:2;stroke-miterlimit:10;" d="M121.498-72.884
				c-15.907-3.157-30.946-9.658-46.614-13.844c-15.668-4.187-32.801-5.932-47.764,0.322C7.52-78.216-4.602-57.538-8.229-36.608
				S-8.368,5.761-4.749,26.693C-1.13,47.625,2.63,68.974-0.47,89.989c-1.831,12.415-6.049,24.77-4.464,37.218
				c2.492,19.573,21.14,35.727,40.868,35.402c15.888-0.261,30.122-9.723,42.047-20.224s22.832-22.558,36.88-29.981
				c12.837-6.783,27.458-9.239,41.82-11.369c11.414-1.693,23.021-3.241,34.455-1.688c11.434,1.553,22.853,6.594,29.748,15.847
				c4.343,5.828,6.634,12.911,10.345,19.16c3.71,6.249,9.672,12.02,16.937,12.19c9.159,0.214,19.442-8.114,26.323-2.066
				c4.11,3.613,6.572,11.854,11.626,9.753c1.731-0.719,2.694-2.559,3.339-4.319c5.959-16.257-3.498-35.091,2.246-51.425
				c2.654-7.548,8.318-13.679,14.551-18.695c12.934-10.409,28.711-16.886,41.41-27.579c12.699-10.694,22.215-28.21,16.277-43.713
				c-3.565-9.308-12.013-15.946-20.987-20.285c-14.057-6.797-29.81-8.986-44.934-12.87c-15.123-3.884-30.576-10.094-40.099-22.468
				c-14.301-18.583-21.557-54.023-52.222-41.942C176.766-77.666,154.106-66.414,121.498-72.884z"/>
			<path style="fill:none;stroke:#FFFFFF;stroke-width:2;stroke-miterlimit:10;" d="M14.185,15.406
				c4.4,19.314,9.719,39.105,6.553,58.66c-1.704,10.524-5.833,20.592-6.906,31.199c-1.073,10.607,1.778,22.661,10.774,28.382
				c8.893,5.655,20.966,3.218,29.795-2.537c8.829-5.755,15.407-14.278,22.816-21.773c26.5-26.804,64.447-40.512,102.106-42.1
				c10.933-0.461,22.254,0.11,32.144,4.791c12.343,5.842,21.12,17.577,26.149,30.272c3.678,9.286,8.251,21.35,18.239,21.245
				c8.792-0.092,13.873-10.347,14.294-19.13s-1.615-18.036,1.881-26.104c6.409-14.79,26.66-16.866,38.533-27.767
				c11.655-10.7,13.098-30.696,3.101-42.959c-9.771-11.986-26.474-15.049-41.613-18.201c-11.612-2.418-30.357-6.766-36.437-18.522
				c-6.179-11.947-1.249-27.435-16.085-35.114c-11.233-5.814-24.61,0.16-36.355,4.856c-22.532,9.007-50.922,14.396-74.401,5.54
				c-9.483-3.577-16.879-12.006-26.291-16.58c-12.012-5.837-25.418-9.436-38.326-4.17C6.081-59.073,6.442-18.581,14.185,15.406z"/>
			<path style="fill:none;stroke:#FFFFFF;stroke-width:2;stroke-miterlimit:10;" d="M115.1,6.27
				c-1.24-0.857-2.405-1.821-3.473-2.913c-7.503-7.674-8.325-19.5-12.888-29.215c-8.337-17.75-29.525-30.04-49.083-25.909
				c-8.636,1.824-16.984,7.549-20.92,15.588c-4.068,8.306-0.309,18.173,2.416,26.48c5.876,17.911,14.683,35.317,15.472,54.151
				c0.325,7.747-0.606,15.744-2.681,23.219c-1.804,6.495-5.545,12.53-5.252,19.478c0.196,4.653,2.267,9.394,6.143,11.976
				c10.638,7.088,19.657-6.559,24.296-14.113c8.985-14.633,22.32-27.925,39.211-31.009c7.789-1.422,15.784-0.581,23.698-0.331
				c12.332,0.389,28.645-0.935,31.302-16.169c1.284-7.364-3.846-14.596-10.293-18.377c-6.448-3.781-14.035-4.953-21.338-6.546
				C125.897,11.31,119.929,9.605,115.1,6.27z"/>
			<path style="fill:none;stroke:#FFFFFF;stroke-width:2;stroke-miterlimit:10;" d="M180.317-34.479
				c9.439-3.054,20.287-6.38,28.755-1.213c7.644,4.664,10.137,14.368,14.971,21.906c4.861,7.58,12.58,13.279,21.255,15.693
				c7.156,1.991,14.761,1.796,21.973,3.571c7.212,1.775,14.56,6.366,16.158,13.619c1.572,7.133-2.884,14.163-7.818,19.549
				c-4.933,5.386-10.77,10.446-12.965,17.412c-1.668,5.293-1.174,11.52-4.741,15.771c-3.998,4.763-11.631,4.79-17.147,1.919
				c-5.516-2.87-9.503-7.914-13.633-12.563s-8.907-9.229-14.973-10.594c-6.713-1.511-14.104,1.15-20.446-1.519
				c-8.801-3.703-10.714-15.042-11.917-24.514c-0.37-2.916-0.847-5.964-2.615-8.313c-1.192-1.584-2.881-2.718-4.615-3.678
				c-15.191-8.408-36.52-6.145-47.316-19.743c-9.361-11.791,4.41-20.803,15.346-21.367
				C154.641-29.266,166.641-30.054,180.317-34.479z"/>
			<path style="fill:none;stroke:#FFFFFF;stroke-width:2;stroke-miterlimit:10;" d="M95.668-0.753
				c-1.972-7.735-5.16-15.16-9.419-21.913c-3.831-6.073-8.655-11.713-14.912-15.236c-5.943-3.347-13.413-4.864-20.179-3.873
				c-7.606,1.114-11.341,6.269-12.228,13.853c-1.089,9.316,2.426,18.535,6.533,26.968c4.106,8.433,8.929,16.705,10.755,25.905
				c1.648,8.306,0.752,16.871,0.598,25.337c-0.076,4.176,0.819,9.436,4.854,10.516c4.566,1.221,9.22-4.778,12.18-7.652
				c4.379-4.251,7.788-9,12.831-12.619c3.776-2.71,8.213-4.976,12.848-4.627c4.276,0.322,8.059,2.807,12.185,3.977
				c3.661,1.038,7.766,0.974,11.089-0.883c3.322-1.856,5.626-5.722,4.996-9.475c-0.602-3.587-3.682-6.377-7.11-7.594
				c-5.894-2.094-12.845,0.167-18.054-4.018c-4.221-3.391-5.01-9.365-6.063-14.676C96.306,1.899,96.004,0.568,95.668-0.753z"/>
			<path style="fill:none;stroke:#FFFFFF;stroke-width:2;stroke-miterlimit:10;" d="M50.213-22.839
				c-0.266,5.357,2.579,10.335,5.546,14.803c2.967,4.468,6.244,9.01,7.028,14.316c0.331,2.235,0.202,4.538,0.762,6.727
				c0.929,3.63,3.853,6.681,7.44,7.764c3.587,1.083,7.711,0.161,10.494-2.347c3.409-3.072,4.55-7.944,4.758-12.528
				c0.515-11.335-3.897-22.733-11.639-30.986c-3.276-3.492-8.612-8.703-13.733-8.821C55.4-34.038,50.468-27.969,50.213-22.839z"/>
			<path style="fill:none;stroke:#FFFFFF;stroke-width:2;stroke-miterlimit:10;" d="M136.803,34.838
				c-0.481,0.964-0.812,2.026-0.775,3.103c0.062,1.805,1.152,3.435,2.489,4.648c2.598,2.355,6.364,3.456,9.761,2.585
				c6.705-1.719,9.324-10.784,3.58-15.295C147.265,26.271,139.119,30.192,136.803,34.838z"/>
			<path style="fill:none;stroke:#FFFFFF;stroke-width:2;stroke-miterlimit:10;" d="M176.674-17.268
				c7.671-0.07,15.085-5.994,22.398-3.674c6.865,2.178,9.51,10.193,13.211,16.372c5.351,8.934,14.754,15.331,25.029,17.028
				c5.603,0.925,12.081,0.834,15.859,5.074c2.59,2.906,3.099,7.068,3.367,10.951c0.322,4.666,0.451,9.47-1.08,13.889
				c-1.531,4.419-5.058,8.423-9.658,9.263c-5.474,0.999-10.677-2.54-14.89-6.174c-4.214-3.634-8.616-7.763-14.155-8.29
				c-5.092-0.484-10.335,2.229-15.208,0.676c-5.245-1.672-7.817-7.545-9-12.921s-1.776-11.243-5.379-15.405
				c-3.415-3.945-8.843-5.478-14.025-6.095c-8.183-0.976-25.324-0.618-23.944-13.21C150.666-23.193,168.448-17.194,176.674-17.268z"
				/>
			<path style="fill:none;stroke:#FFFFFF;stroke-width:2;stroke-miterlimit:10;" d="M218.907,18.601
				c3.117,1.46,6.699,1.366,10.139,1.504c4.175,0.167,8.451,0.755,12.1,2.791c3.649,2.036,6.574,5.773,6.661,9.95
				c0.027,1.278-0.218,2.585-0.878,3.679c-1.966,3.262-6.697,3.467-10.316,2.281c-3.242-1.062-6.219-2.922-8.594-5.371
				c-1.662-1.714-3.09-3.753-5.2-4.868c-2.225-1.176-4.864-1.143-7.332-1.639c-3.92-0.788-7.534-3.013-10.002-6.158
				c-2.611-3.327-3.978-11.535,2.471-11.241C212.025,9.713,215.178,16.855,218.907,18.601z"/>
			<path style="fill:none;stroke:#65C8D0;stroke-width:3;stroke-miterlimit:10;" d="M671.504,108.461
				c-8.335,18.833-20.682,37.268-39.723,46.427c-31.446,15.127-68.757,0.605-103.898-0.595c-3.285-0.112-6.75-0.062-9.601,1.51
				c-6.874,3.791-5.994,14.195-0.832,19.976c5.161,5.781,12.931,8.626,19.546,12.823c11.672,7.405,19.956,19.57,22.347,32.815
				c1.836,10.17,0.577,21.469,6.719,29.936c7.852,10.825,23.64,11.878,36.903,15.285c24.146,6.202,44.396,23.475,56.165,44.67
				c11.768,21.195,15.507,45.975,13.337,69.909c-3.044,33.572-17.178,67.431-8.227,100.013c2.699,9.822,7.773,19.461,16.334,25.418
				c9.536,6.635,21.96,7.831,33.729,8.064c14.589,0.29,30.342-0.961,41.538-9.957c11.721-9.42,15.577-24.992,17.584-39.55
				c6.521-47.309,0.74-95.264-0.846-142.963c-1.255-37.735,0.128-75.551,4.135-113.108c4.37-40.952,11.868-81.842,10.223-122.978
				c-1.052-26.286-16.204-82.501-55.889-70.042C693.812,27.803,684.662,78.728,671.504,108.461z"/>
			<path style="fill:none;stroke:#FFFFFF;stroke-width:2;stroke-miterlimit:10;" d="M685.745,137.528
				c-12.986,22.168-34.955,41.549-61.347,43.465c-13.092,0.95-26.092-2.439-38.525-6.493c-6.873-2.241-15.295-4.434-20.699,0.223
				c-5.629,4.85-3.771,13.947,0.582,19.888c4.353,5.941,10.681,10.577,13.85,17.175c3.022,6.292,2.951,13.963,7.453,19.375
				c7.342,8.825,21.524,6.591,33.054,8.797c32.862,6.286,53.742,51.117,63.742,78.179c12.523,33.892,15.672,71.082,8.026,106.348
				c-2.295,10.584-5.515,21.123-5.453,31.934c0.061,10.811,4.056,22.305,13.323,28.433c12.337,8.158,30.278,3.864,40.851-6.329
				c15.352-14.8,17.149-35.551,19.082-54.969c2.449-24.596,0.753-47.522-1.37-72.134c-2.951-34.196,1.48-67.975,0.959-101.89
				c-0.533-34.652-1.069-71.922,5.422-106.085c3.791-19.951,10.891-39.763,9.122-59.973c-1.993-22.77-28.74-58.204-52.031-32.355
				c-9.641,10.701-12.557,27.627-16.938,40.73C699.619,107.484,694.163,123.158,685.745,137.528z"/>
			<path style="fill:none;stroke:#FFFFFF;stroke-width:2;stroke-miterlimit:10;" d="M736.693,67.985
				c-3.227,1.91-5.279,5.284-6.953,8.639c-10.507,21.055-11.03,45.864-20.594,67.364c-14.504,32.603-50.958,53.998-86.495,50.763
				c-4.848-0.441-9.754-1.292-14.546-0.438c-4.792,0.854-9.589,3.893-10.811,8.605c-1.757,6.772,4.737,13.263,11.554,14.839
				c6.817,1.576,13.91-0.069,20.904-0.287c13.025-0.406,26.139,4.41,35.806,13.147c9.146,8.266,14.98,19.517,22.965,28.909
				c7.985,9.392,19.804,17.311,31.911,14.989c9.944-1.908,17.49-10.359,21.743-19.547c7.731-16.703,6.812-35.903,7.013-54.307
				c0.317-29.128,3.892-58.147,10.453-86.522c2.33-10.078,5.144-18.173,2.189-28.316C758.982,76.044,748.96,60.721,736.693,67.985z"
				/>
			<path style="fill:none;stroke:#FFFFFF;stroke-width:2;stroke-miterlimit:10;" d="M720.513,289.363
				c-8.673,10.047-10.509,24.413-9.128,37.614c1.381,13.201,5.551,25.962,7.393,39.107c2.136,15.247,1.081,30.934-3.077,45.758
				c-2.347,8.369-5.71,16.802-4.794,25.445c0.915,8.643,8.145,17.455,16.755,16.263c7.053-0.977,11.599-7.839,14.716-14.241
				c10.674-21.922,15.762-46.537,14.653-70.894c-0.743-16.326-4.141-33.216,1.235-48.65c4.091-11.745,10.896-27.303-1.712-36.908
				C746.266,275.018,728.208,280.448,720.513,289.363z"/>
			<path style="fill:none;stroke:#FFFFFF;stroke-width:2;stroke-miterlimit:10;" d="M710.583,181.938
				c-5.224,3.435-11.22,5.727-15.942,9.825c-6.458,5.605-9.917,14.483-8.954,22.98c0.963,8.497,6.322,16.375,13.872,20.392
				c1.687,0.898,3.508,1.638,4.872,2.977c2.377,2.332,3.221,6.313,6.315,7.542c2.863,1.138,6.065-0.833,7.974-3.252
				c4.758-6.027,4.829-14.436,4.098-22.08c-0.731-7.644-2.002-15.624,0.734-22.798c1.6-4.197,4.462-7.775,6.615-11.718
				c3.729-6.83,5.28-14.827,4.375-22.555c-0.304-2.595-1.091-5.465-3.365-6.751C723.779,152.317,716.791,177.857,710.583,181.938z"
				/>
			<path style="fill:none;stroke:#FFFFFF;stroke-width:2;stroke-miterlimit:10;" d="M733.917,340.335
				c1.302,1.938,2.981,3.771,5.202,4.492c5.06,1.642,9.977-3.131,12.147-7.992c3.864-8.655,6.668-49.86-12.145-43.168
				C724.988,298.694,727.705,331.088,733.917,340.335z"/>
		</g>
	</g>
</g>
</svg>
