<svg xmlns="http://www.w3.org/2000/svg" width="1920" height="1080" viewBox="0 0 1920 1080">
<rect width="100%" height="100%" fill="#041021" />
<defs>
  <filter id="glow" x="-50%" y="-50%" width="200%" height="200%">
    <feGaussianBlur stdDeviation="6" result="coloredBlur"/>
    <feMerge>
      <feMergeNode in="coloredBlur"/>
      <feMergeNode in="SourceGraphic"/>
    </feMerge>
  </filter>
</defs>
<path d="M 385.84,232.21 C 425.17,237.43 503.84,246.38 543.17,250.11 C 503.84,246.38 582.51,237.53 621.84,224.94 C 582.51,237.53 661.17,207.68 700.51,190.42 C 661.17,207.68 739.84,195.20 779.18,199.97 C 739.84,195.20 818.51,228.37 857.85,256.77 C 818.51,228.37 897.18,275.86 936.51,294.96 C 897.18,275.86 975.85,278.25 1015.18,261.55 C 975.85,278.25 1054.52,226.46 1093.85,191.37 C 1054.52,226.46 1133.18,179.61 1172.52,167.85 C 1133.18,179.61 1211.85,192.47 1251.19,217.10 C 1211.85,192.47 1290.52,246.89 1329.85,276.68 C 1290.52,246.89 1369.19,277.73 1408.52,278.78 C 1369.19,277.73 1447.86,256.00 1487.19,233.23 C 1447.86,256.00 1526.52,217.86 1565.86,202.50 C 1526.52,217.86 1605.19,208.23 1644.53,213.97 C 1605.19,208.23 1683.86,224.21 1723.20,234.46 C 1683.86,224.21 1762.53,233.33 1801.86,232.21 " fill="none" stroke="#ff8a50" stroke-opacity="0.315" stroke-width="3.68" stroke-linecap="round" stroke-linejoin="round" filter="url(#glow)"/>
<path d="M 385.84,232.21 C 425.17,237.43 503.84,246.38 543.17,250.11 C 503.84,246.38 582.51,237.53 621.84,224.94 C 582.51,237.53 661.17,207.68 700.51,190.42 C 661.17,207.68 739.84,195.20 779.18,199.97 C 739.84,195.20 818.51,228.37 857.85,256.77 C 818.51,228.37 897.18,275.86 936.51,294.96 C 897.18,275.86 975.85,278.25 1015.18,261.55 C 975.85,278.25 1054.52,226.46 1093.85,191.37 C 1054.52,226.46 1133.18,179.61 1172.52,167.85 C 1133.18,179.61 1211.85,192.47 1251.19,217.10 C 1211.85,192.47 1290.52,246.89 1329.85,276.68 C 1290.52,246.89 1369.19,277.73 1408.52,278.78 C 1369.19,277.73 1447.86,256.00 1487.19,233.23 C 1447.86,256.00 1526.52,217.86 1565.86,202.50 C 1526.52,217.86 1605.19,208.23 1644.53,213.97 C 1605.19,208.23 1683.86,224.21 1723.20,234.46 C 1683.86,224.21 1762.53,233.33 1801.86,232.21 " fill="none" stroke="#ff8a50" stroke-opacity="0.900" stroke-width="0.61" stroke-linecap="round" stroke-linejoin="round"/>
<path d="M 385.84,232.21 C 425.17,237.43 503.84,246.38 543.17,250.11 C 503.84,246.38 582.51,237.53 621.84,224.94 C 582.51,237.53 661.17,207.68 700.51,190.42 C 661.17,207.68 739.84,195.20 779.18,199.97 C 739.84,195.20 818.51,228.37 857.85,256.77 C 818.51,228.37 897.18,275.86 936.51,294.96 C 897.18,275.86 975.85,278.25 1015.18,261.55 C 975.85,278.25 1054.52,226.46 1093.85,191.37 C 1054.52,226.46 1133.18,179.61 1172.52,167.85 C 1133.18,179.61 1211.85,192.47 1251.19,217.10 C 1211.85,192.47 1290.52,246.89 1329.85,276.68 C 1290.52,246.89 1369.19,277.73 1408.52,278.78 C 1369.19,277.73 1447.86,256.00 1487.19,233.23 C 1447.86,256.00 1526.52,217.86 1565.86,202.50 C 1526.52,217.86 1605.19,208.23 1644.53,213.97 C 1605.19,208.23 1683.86,224.21 1723.20,234.46 C 1683.86,224.21 1762.53,233.33 1801.86,232.21 " fill="none" stroke="#bfefff" stroke-opacity="0.600" stroke-width="0.60" stroke-linecap="round" stroke-linejoin="round" opacity="0.7"/>
<circle cx="383.95" cy="231.08" r="2.04" fill="#6fe6ff" fill-opacity="0.9"/>
<circle cx="541.97" cy="250.71" r="1.25" fill="#6fe6ff" fill-opacity="0.9"/>
<circle cx="700.87" cy="191.66" r="1.64" fill="#ff8a50" fill-opacity="0.9"/>
<circle cx="858.64" cy="256.13" r="2.81" fill="#6fe6ff" fill-opacity="0.9"/>
<circle cx="1014.53" cy="259.92" r="3.11" fill="#ff8a50" fill-opacity="0.9"/>
<circle cx="1172.93" cy="169.07" r="2.89" fill="#6fe6ff" fill-opacity="0.9"/>
<circle cx="1331.75" cy="276.20" r="2.27" fill="#6fe6ff" fill-opacity="0.9"/>
<circle cx="1487.66" cy="234.68" r="2.86" fill="#6fe6ff" fill-opacity="0.9"/>
<circle cx="1642.71" cy="212.88" r="2.61" fill="#6fe6ff" fill-opacity="0.9"/>
<circle cx="1800.79" cy="230.61" r="1.36" fill="#6fe6ff" fill-opacity="0.9"/>
<path d="M 336.57,452.41 C 405.09,460.27 542.12,475.84 610.64,483.54 C 542.12,475.84 679.16,469.34 747.67,455.14 C 679.16,469.34 816.19,429.29 884.71,403.43 C 816.19,429.29 953.22,398.63 1021.74,393.83 C 953.22,398.63 1090.26,419.55 1158.77,445.27 C 1090.26,419.55 1227.29,472.37 1295.81,499.47 C 1227.29,472.37 1364.33,498.84 1432.84,498.21 C 1364.33,498.84 1501.36,478.23 1569.88,458.25 C 1501.36,478.23 1638.39,448.36 1706.91,438.48 C 1638.39,448.36 1775.43,445.44 1843.94,452.41 " fill="none" stroke="#2aa7ff" stroke-opacity="0.227" stroke-width="6.79" stroke-linecap="round" stroke-linejoin="round" filter="url(#glow)"/>
<path d="M 336.57,452.41 C 405.09,460.27 542.12,475.84 610.64,483.54 C 542.12,475.84 679.16,469.34 747.67,455.14 C 679.16,469.34 816.19,429.29 884.71,403.43 C 816.19,429.29 953.22,398.63 1021.74,393.83 C 953.22,398.63 1090.26,419.55 1158.77,445.27 C 1090.26,419.55 1227.29,472.37 1295.81,499.47 C 1227.29,472.37 1364.33,498.84 1432.84,498.21 C 1364.33,498.84 1501.36,478.23 1569.88,458.25 C 1501.36,478.23 1638.39,448.36 1706.91,438.48 C 1638.39,448.36 1775.43,445.44 1843.94,452.41 " fill="none" stroke="#2aa7ff" stroke-opacity="0.650" stroke-width="1.13" stroke-linecap="round" stroke-linejoin="round"/>
<path d="M 336.57,452.41 C 405.09,460.27 542.12,475.84 610.64,483.54 C 542.12,475.84 679.16,469.34 747.67,455.14 C 679.16,469.34 816.19,429.29 884.71,403.43 C 816.19,429.29 953.22,398.63 1021.74,393.83 C 953.22,398.63 1090.26,419.55 1158.77,445.27 C 1090.26,419.55 1227.29,472.37 1295.81,499.47 C 1227.29,472.37 1364.33,498.84 1432.84,498.21 C 1364.33,498.84 1501.36,478.23 1569.88,458.25 C 1501.36,478.23 1638.39,448.36 1706.91,438.48 C 1638.39,448.36 1775.43,445.44 1843.94,452.41 " fill="none" stroke="#bfefff" stroke-opacity="0.600" stroke-width="0.60" stroke-linecap="round" stroke-linejoin="round" opacity="0.7"/>
<circle cx="337.49" cy="451.06" r="1.54" fill="#6fe6ff" fill-opacity="0.9"/>
<circle cx="611.20" cy="483.77" r="3.18" fill="#6fe6ff" fill-opacity="0.9"/>
<circle cx="885.81" cy="402.34" r="2.89" fill="#ff8a50" fill-opacity="0.9"/>
<circle cx="1157.85" cy="444.11" r="1.83" fill="#6fe6ff" fill-opacity="0.9"/>
<circle cx="1432.10" cy="498.83" r="2.95" fill="#6fe6ff" fill-opacity="0.9"/>
<circle cx="1706.75" cy="437.54" r="3.03" fill="#6fe6ff" fill-opacity="0.9"/>
<path d="M 162.31,386.26 C 228.20,401.70 359.99,430.89 425.88,444.64 C 359.99,430.89 491.77,413.21 557.67,381.78 C 491.77,413.21 623.56,329.61 689.45,277.45 C 623.56,329.61 755.34,274.84 821.24,272.23 C 755.34,274.84 887.13,335.94 953.02,399.65 C 887.13,335.94 1018.91,460.00 1084.81,520.36 C 1018.91,460.00 1150.70,508.48 1216.59,496.60 C 1150.70,508.48 1282.48,433.11 1348.38,369.63 C 1282.48,433.11 1414.27,332.29 1480.16,294.96 C 1414.27,332.29 1546.05,314.16 1611.95,333.36 C 1546.05,314.16 1677.84,363.02 1743.73,392.69 C 1677.84,363.02 1809.62,389.47 1875.51,386.26 " fill="none" stroke="#2aa7ff" stroke-opacity="0.227" stroke-width="9.58" stroke-linecap="round" stroke-linejoin="round" filter="url(#glow)"/>
<path d="M 162.31,386.26 C 228.20,401.70 359.99,430.89 425.88,444.64 C 359.99,430.89 491.77,413.21 557.67,381.78 C 491.77,413.21 623.56,329.61 689.45,277.45 C 623.56,329.61 755.34,274.84 821.24,272.23 C 755.34,274.84 887.13,335.94 953.02,399.65 C 887.13,335.94 1018.91,460.00 1084.81,520.36 C 1018.91,460.00 1150.70,508.48 1216.59,496.60 C 1150.70,508.48 1282.48,433.11 1348.38,369.63 C 1282.48,433.11 1414.27,332.29 1480.16,294.96 C 1414.27,332.29 1546.05,314.16 1611.95,333.36 C 1546.05,314.16 1677.84,363.02 1743.73,392.69 C 1677.84,363.02 1809.62,389.47 1875.51,386.26 " fill="none" stroke="#2aa7ff" stroke-opacity="0.650" stroke-width="1.60" stroke-linecap="round" stroke-linejoin="round"/>
<path d="M 162.31,386.26 C 228.20,401.70 359.99,430.89 425.88,444.64 C 359.99,430.89 491.77,413.21 557.67,381.78 C 491.77,413.21 623.56,329.61 689.45,277.45 C 623.56,329.61 755.34,274.84 821.24,272.23 C 755.34,274.84 887.13,335.94 953.02,399.65 C 887.13,335.94 1018.91,460.00 1084.81,520.36 C 1018.91,460.00 1150.70,508.48 1216.59,496.60 C 1150.70,508.48 1282.48,433.11 1348.38,369.63 C 1282.48,433.11 1414.27,332.29 1480.16,294.96 C 1414.27,332.29 1546.05,314.16 1611.95,333.36 C 1546.05,314.16 1677.84,363.02 1743.73,392.69 C 1677.84,363.02 1809.62,389.47 1875.51,386.26 " fill="none" stroke="#bfefff" stroke-opacity="0.600" stroke-width="0.60" stroke-linecap="round" stroke-linejoin="round" opacity="0.7"/>
<circle cx="162.29" cy="387.28" r="1.48" fill="#6fe6ff" fill-opacity="0.9"/>
<circle cx="424.52" cy="445.36" r="1.51" fill="#6fe6ff" fill-opacity="0.9"/>
<circle cx="689.83" cy="277.32" r="1.97" fill="#6fe6ff" fill-opacity="0.9"/>
<circle cx="954.79" cy="400.37" r="2.31" fill="#ff8a50" fill-opacity="0.9"/>
<circle cx="1217.59" cy="497.67" r="2.97" fill="#6fe6ff" fill-opacity="0.9"/>
<circle cx="1478.79" cy="292.97" r="1.79" fill="#6fe6ff" fill-opacity="0.9"/>
<circle cx="1745.62" cy="393.73" r="2.64" fill="#6fe6ff" fill-opacity="0.9"/>
<path d="M -397.85,621.19 C -332.51,627.70 -201.85,647.67 -136.51,661.13 C -201.85,647.67 -71.18,668.05 -5.85,674.97 C -71.18,668.05 59.49,664.94 124.82,654.91 C 59.49,664.94 190.15,629.26 255.49,603.61 C 190.15,629.26 320.82,575.68 386.15,547.75 C 320.82,575.68 451.49,534.31 516.82,520.87 C 451.49,534.31 582.15,530.73 647.49,540.59 C 582.15,530.73 712.82,568.39 778.15,596.18 C 712.82,568.39 843.49,625.91 908.82,655.65 C 843.49,625.91 974.15,671.39 1039.49,687.13 C 974.15,671.39 1104.82,683.38 1170.16,679.64 C 1104.82,683.38 1235.49,664.10 1300.82,648.56 C 1235.49,664.10 1366.16,635.52 1431.49,622.47 C 1366.16,635.52 1496.82,621.83 1562.16,621.19 " fill="none" stroke="#4fe0d8" stroke-opacity="0.262" stroke-width="10.92" stroke-linecap="round" stroke-linejoin="round" filter="url(#glow)"/>
<path d="M -397.85,621.19 C -332.51,627.70 -201.85,647.67 -136.51,661.13 C -201.85,647.67 -71.18,668.05 -5.85,674.97 C -71.18,668.05 59.49,664.94 124.82,654.91 C 59.49,664.94 190.15,629.26 255.49,603.61 C 190.15,629.26 320.82,575.68 386.15,547.75 C 320.82,575.68 451.49,534.31 516.82,520.87 C 451.49,534.31 582.15,530.73 647.49,540.59 C 582.15,530.73 712.82,568.39 778.15,596.18 C 712.82,568.39 843.49,625.91 908.82,655.65 C 843.49,625.91 974.15,671.39 1039.49,687.13 C 974.15,671.39 1104.82,683.38 1170.16,679.64 C 1104.82,683.38 1235.49,664.10 1300.82,648.56 C 1235.49,664.10 1366.16,635.52 1431.49,622.47 C 1366.16,635.52 1496.82,621.83 1562.16,621.19 " fill="none" stroke="#4fe0d8" stroke-opacity="0.750" stroke-width="1.82" stroke-linecap="round" stroke-linejoin="round"/>
<path d="M -397.85,621.19 C -332.51,627.70 -201.85,647.67 -136.51,661.13 C -201.85,647.67 -71.18,668.05 -5.85,674.97 C -71.18,668.05 59.49,664.94 124.82,654.91 C 59.49,664.94 190.15,629.26 255.49,603.61 C 190.15,629.26 320.82,575.68 386.15,547.75 C 320.82,575.68 451.49,534.31 516.82,520.87 C 451.49,534.31 582.15,530.73 647.49,540.59 C 582.15,530.73 712.82,568.39 778.15,596.18 C 712.82,568.39 843.49,625.91 908.82,655.65 C 843.49,625.91 974.15,671.39 1039.49,687.13 C 974.15,671.39 1104.82,683.38 1170.16,679.64 C 1104.82,683.38 1235.49,664.10 1300.82,648.56 C 1235.49,664.10 1366.16,635.52 1431.49,622.47 C 1366.16,635.52 1496.82,621.83 1562.16,621.19 " fill="none" stroke="#bfefff" stroke-opacity="0.600" stroke-width="0.64" stroke-linecap="round" stroke-linejoin="round" opacity="0.7"/>
<circle cx="-396.73" cy="621.32" r="2.28" fill="#ff8a50" fill-opacity="0.9"/>
<circle cx="-138.44" cy="662.85" r="1.85" fill="#6fe6ff" fill-opacity="0.9"/>
<circle cx="124.05" cy="653.14" r="2.86" fill="#6fe6ff" fill-opacity="0.9"/>
<circle cx="384.50" cy="547.69" r="3.09" fill="#ff8a50" fill-opacity="0.9"/>
<circle cx="648.55" cy="539.10" r="2.72" fill="#6fe6ff" fill-opacity="0.9"/>
<circle cx="907.88" cy="657.14" r="2.30" fill="#6fe6ff" fill-opacity="0.9"/>
<circle cx="1170.31" cy="680.56" r="1.62" fill="#6fe6ff" fill-opacity="0.9"/>
<circle cx="1433.47" cy="623.07" r="1.82" fill="#6fe6ff" fill-opacity="0.9"/>
<path d="M 293.02,294.41 C 345.62,303.79 450.83,312.25 503.43,311.33 C 450.83,312.25 556.04,282.50 608.64,253.66 C 556.04,282.50 661.25,247.31 713.85,240.95 C 661.25,247.31 766.46,282.30 819.06,323.65 C 766.46,282.30 871.66,348.48 924.27,373.32 C 871.66,348.48 976.87,336.68 1029.48,300.03 C 976.87,336.68 1082.08,261.29 1134.69,222.55 C 1082.08,261.29 1187.29,241.46 1239.89,260.36 C 1187.29,241.46 1292.50,296.50 1345.10,332.63 C 1292.50,296.50 1397.71,329.36 1450.31,326.08 C 1397.71,329.36 1502.91,307.14 1555.52,288.19 C 1502.91,307.14 1608.12,291.30 1660.73,294.41 " fill="none" stroke="#2aa7ff" stroke-opacity="0.227" stroke-width="6.64" stroke-linecap="round" stroke-linejoin="round" filter="url(#glow)"/>
<path d="M 293.02,294.41 C 345.62,303.79 450.83,312.25 503.43,311.33 C 450.83,312.25 556.04,282.50 608.64,253.66 C 556.04,282.50 661.25,247.31 713.85,240.95 C 661.25,247.31 766.46,282.30 819.06,323.65 C 766.46,282.30 871.66,348.48 924.27,373.32 C 871.66,348.48 976.87,336.68 1029.48,300.03 C 976.87,336.68 1082.08,261.29 1134.69,222.55 C 1082.08,261.29 1187.29,241.46 1239.89,260.36 C 1187.29,241.46 1292.50,296.50 1345.10,332.63 C 1292.50,296.50 1397.71,329.36 1450.31,326.08 C 1397.71,329.36 1502.91,307.14 1555.52,288.19 C 1502.91,307.14 1608.12,291.30 1660.73,294.41 " fill="none" stroke="#2aa7ff" stroke-opacity="0.650" stroke-width="1.11" stroke-linecap="round" stroke-linejoin="round"/>
<path d="M 293.02,294.41 C 345.62,303.79 450.83,312.25 503.43,311.33 C 450.83,312.25 556.04,282.50 608.64,253.66 C 556.04,282.50 661.25,247.31 713.85,240.95 C 661.25,247.31 766.46,282.30 819.06,323.65 C 766.46,282.30 871.66,348.48 924.27,373.32 C 871.66,348.48 976.87,336.68 1029.48,300.03 C 976.87,336.68 1082.08,261.29 1134.69,222.55 C 1082.08,261.29 1187.29,241.46 1239.89,260.36 C 1187.29,241.46 1292.50,296.50 1345.10,332.63 C 1292.50,296.50 1397.71,329.36 1450.31,326.08 C 1397.71,329.36 1502.91,307.14 1555.52,288.19 C 1502.91,307.14 1608.12,291.30 1660.73,294.41 " fill="none" stroke="#bfefff" stroke-opacity="0.600" stroke-width="0.60" stroke-linecap="round" stroke-linejoin="round" opacity="0.7"/>
<circle cx="293.85" cy="292.65" r="1.21" fill="#ff8a50" fill-opacity="0.9"/>
<circle cx="502.76" cy="311.39" r="1.26" fill="#6fe6ff" fill-opacity="0.9"/>
<circle cx="714.01" cy="241.84" r="2.17" fill="#6fe6ff" fill-opacity="0.9"/>
<circle cx="923.24" cy="373.21" r="2.35" fill="#6fe6ff" fill-opacity="0.9"/>
<circle cx="1135.32" cy="221.97" r="1.39" fill="#6fe6ff" fill-opacity="0.9"/>
<circle cx="1343.32" cy="333.24" r="2.93" fill="#6fe6ff" fill-opacity="0.9"/>
<circle cx="1556.43" cy="289.40" r="1.32" fill="#ff8a50" fill-opacity="0.9"/>
<path d="M 20.64,563.51 C 79.12,572.06 196.08,578.80 254.56,576.99 C 196.08,578.80 313.04,551.19 371.52,525.38 C 313.04,551.19 430.00,523.68 488.48,521.98 C 430.00,523.68 546.97,558.44 605.45,594.90 C 546.97,558.44 663.93,608.24 722.41,621.59 C 663.93,608.24 780.89,589.09 839.37,556.60 C 780.89,589.09 897.85,536.70 956.33,516.81 C 897.85,536.70 1014.81,535.35 1073.29,553.90 C 1014.81,535.35 1131.77,566.38 1190.25,578.87 C 1131.77,566.38 1248.73,571.19 1307.21,563.51 " fill="none" stroke="#2aa7ff" stroke-opacity="0.227" stroke-width="5.59" stroke-linecap="round" stroke-linejoin="round" filter="url(#glow)"/>
<path d="M 20.64,563.51 C 79.12,572.06 196.08,578.80 254.56,576.99 C 196.08,578.80 313.04,551.19 371.52,525.38 C 313.04,551.19 430.00,523.68 488.48,521.98 C 430.00,523.68 546.97,558.44 605.45,594.90 C 546.97,558.44 663.93,608.24 722.41,621.59 C 663.93,608.24 780.89,589.09 839.37,556.60 C 780.89,589.09 897.85,536.70 956.33,516.81 C 897.85,536.70 1014.81,535.35 1073.29,553.90 C 1014.81,535.35 1131.77,566.38 1190.25,578.87 C 1131.77,566.38 1248.73,571.19 1307.21,563.51 " fill="none" stroke="#2aa7ff" stroke-opacity="0.650" stroke-width="0.93" stroke-linecap="round" stroke-linejoin="round"/>
<path d="M 20.64,563.51 C 79.12,572.06 196.08,578.80 254.56,576.99 C 196.08,578.80 313.04,551.19 371.52,525.38 C 313.04,551.19 430.00,523.68 488.48,521.98 C 430.00,523.68 546.97,558.44 605.45,594.90 C 546.97,558.44 663.93,608.24 722.41,621.59 C 663.93,608.24 780.89,589.09 839.37,556.60 C 780.89,589.09 897.85,536.70 956.33,516.81 C 897.85,536.70 1014.81,535.35 1073.29,553.90 C 1014.81,535.35 1131.77,566.38 1190.25,578.87 C 1131.77,566.38 1248.73,571.19 1307.21,563.51 " fill="none" stroke="#bfefff" stroke-opacity="0.600" stroke-width="0.60" stroke-linecap="round" stroke-linejoin="round" opacity="0.7"/>
<circle cx="20.84" cy="561.72" r="2.92" fill="#6fe6ff" fill-opacity="0.9"/>
<circle cx="256.44" cy="578.70" r="2.87" fill="#6fe6ff" fill-opacity="0.9"/>
<circle cx="488.43" cy="520.84" r="1.53" fill="#6fe6ff" fill-opacity="0.9"/>
<circle cx="721.92" cy="623.53" r="1.32" fill="#6fe6ff" fill-opacity="0.9"/>
<circle cx="956.15" cy="516.50" r="2.77" fill="#6fe6ff" fill-opacity="0.9"/>
<circle cx="1190.48" cy="579.74" r="3.19" fill="#6fe6ff" fill-opacity="0.9"/>
<path d="M -89.17,843.72 C -3.77,858.22 167.03,833.37 252.44,794.04 C 167.03,833.37 337.84,811.75 423.24,829.47 C 337.84,811.75 508.64,884.34 594.04,939.21 C 508.64,884.34 679.44,855.04 764.84,770.86 C 679.44,855.04 850.24,790.77 935.64,810.68 C 850.24,790.77 1021.04,869.34 1106.44,928.00 C 1021.04,869.34 1191.84,868.48 1277.24,808.97 C 1191.84,868.48 1362.64,818.48 1448.04,828.00 C 1362.64,818.48 1533.45,835.86 1618.85,843.72 " fill="none" stroke="#ff8a50" stroke-opacity="0.315" stroke-width="3.39" stroke-linecap="round" stroke-linejoin="round" filter="url(#glow)"/>
<path d="M -89.17,843.72 C -3.77,858.22 167.03,833.37 252.44,794.04 C 167.03,833.37 337.84,811.75 423.24,829.47 C 337.84,811.75 508.64,884.34 594.04,939.21 C 508.64,884.34 679.44,855.04 764.84,770.86 C 679.44,855.04 850.24,790.77 935.64,810.68 C 850.24,790.77 1021.04,869.34 1106.44,928.00 C 1021.04,869.34 1191.84,868.48 1277.24,808.97 C 1191.84,868.48 1362.64,818.48 1448.04,828.00 C 1362.64,818.48 1533.45,835.86 1618.85,843.72 " fill="none" stroke="#ff8a50" stroke-opacity="0.900" stroke-width="0.57" stroke-linecap="round" stroke-linejoin="round"/>
<path d="M -89.17,843.72 C -3.77,858.22 167.03,833.37 252.44,794.04 C 167.03,833.37 337.84,811.75 423.24,829.47 C 337.84,811.75 508.64,884.34 594.04,939.21 C 508.64,884.34 679.44,855.04 764.84,770.86 C 679.44,855.04 850.24,790.77 935.64,810.68 C 850.24,790.77 1021.04,869.34 1106.44,928.00 C 1021.04,869.34 1191.84,868.48 1277.24,808.97 C 1191.84,868.48 1362.64,818.48 1448.04,828.00 C 1362.64,818.48 1533.45,835.86 1618.85,843.72 " fill="none" stroke="#bfefff" stroke-opacity="0.600" stroke-width="0.60" stroke-linecap="round" stroke-linejoin="round" opacity="0.7"/>
<circle cx="-87.49" cy="843.85" r="2.15" fill="#ff8a50" fill-opacity="0.9"/>
<circle cx="253.84" cy="792.32" r="2.22" fill="#ff8a50" fill-opacity="0.9"/>
<circle cx="593.65" cy="940.98" r="2.92" fill="#6fe6ff" fill-opacity="0.9"/>
<circle cx="933.80" cy="809.01" r="2.36" fill="#6fe6ff" fill-opacity="0.9"/>
<circle cx="1276.51" cy="808.01" r="2.33" fill="#6fe6ff" fill-opacity="0.9"/>
<circle cx="1617.91" cy="842.25" r="1.83" fill="#6fe6ff" fill-opacity="0.9"/>
<path d="M -106.22,818.00 C -13.02,823.78 173.37,822.35 266.57,815.13 C 173.37,822.35 359.76,801.32 452.96,787.51 C 359.76,801.32 546.15,807.55 639.35,827.59 C 546.15,807.55 732.54,842.09 825.74,856.58 C 732.54,842.09 918.94,829.58 1012.13,802.57 C 918.94,829.58 1105.33,793.48 1198.52,784.39 C 1105.33,793.48 1291.72,808.90 1384.91,833.41 C 1291.72,808.90 1478.11,834.98 1571.31,836.56 C 1478.11,834.98 1664.50,823.78 1757.70,811.01 C 1664.50,823.78 1850.89,814.51 1944.09,818.00 " fill="none" stroke="#2aa7ff" stroke-opacity="0.227" stroke-width="2.93" stroke-linecap="round" stroke-linejoin="round" filter="url(#glow)"/>
<path d="M -106.22,818.00 C -13.02,823.78 173.37,822.35 266.57,815.13 C 173.37,822.35 359.76,801.32 452.96,787.51 C 359.76,801.32 546.15,807.55 639.35,827.59 C 546.15,807.55 732.54,842.09 825.74,856.58 C 732.54,842.09 918.94,829.58 1012.13,802.57 C 918.94,829.58 1105.33,793.48 1198.52,784.39 C 1105.33,793.48 1291.72,808.90 1384.91,833.41 C 1291.72,808.90 1478.11,834.98 1571.31,836.56 C 1478.11,834.98 1664.50,823.78 1757.70,811.01 C 1664.50,823.78 1850.89,814.51 1944.09,818.00 " fill="none" stroke="#2aa7ff" stroke-opacity="0.650" stroke-width="0.49" stroke-linecap="round" stroke-linejoin="round"/>
<path d="M -106.22,818.00 C -13.02,823.78 173.37,822.35 266.57,815.13 C 173.37,822.35 359.76,801.32 452.96,787.51 C 359.76,801.32 546.15,807.55 639.35,827.59 C 546.15,807.55 732.54,842.09 825.74,856.58 C 732.54,842.09 918.94,829.58 1012.13,802.57 C 918.94,829.58 1105.33,793.48 1198.52,784.39 C 1105.33,793.48 1291.72,808.90 1384.91,833.41 C 1291.72,808.90 1478.11,834.98 1571.31,836.56 C 1478.11,834.98 1664.50,823.78 1757.70,811.01 C 1664.50,823.78 1850.89,814.51 1944.09,818.00 " fill="none" stroke="#bfefff" stroke-opacity="0.600" stroke-width="0.60" stroke-linecap="round" stroke-linejoin="round" opacity="0.7"/>
<circle cx="-107.16" cy="819.74" r="1.63" fill="#6fe6ff" fill-opacity="0.9"/>
<circle cx="266.04" cy="813.76" r="2.96" fill="#6fe6ff" fill-opacity="0.9"/>
<circle cx="639.80" cy="829.54" r="2.61" fill="#6fe6ff" fill-opacity="0.9"/>
<circle cx="1013.40" cy="801.77" r="1.22" fill="#6fe6ff" fill-opacity="0.9"/>
<circle cx="1383.45" cy="831.87" r="3.08" fill="#ff8a50" fill-opacity="0.9"/>
<circle cx="1756.79" cy="811.43" r="2.31" fill="#6fe6ff" fill-opacity="0.9"/>
<path d="M -27.26,626.99 C 43.01,637.99 183.55,609.03 253.83,569.07 C 183.55,609.03 324.10,624.37 394.37,679.68 C 324.10,624.37 464.64,657.33 534.91,634.99 C 464.64,657.33 605.18,592.60 675.45,550.21 C 605.18,592.60 745.72,635.11 816.00,720.01 C 745.72,635.11 886.27,649.81 956.54,579.60 C 886.27,649.81 1026.81,598.36 1097.08,617.13 C 1026.81,598.36 1167.35,634.69 1237.62,652.26 C 1167.35,634.69 1307.89,639.62 1378.17,626.99 " fill="none" stroke="#2aa7ff" stroke-opacity="0.227" stroke-width="3.06" stroke-linecap="round" stroke-linejoin="round" filter="url(#glow)"/>
<path d="M -27.26,626.99 C 43.01,637.99 183.55,609.03 253.83,569.07 C 183.55,609.03 324.10,624.37 394.37,679.68 C 324.10,624.37 464.64,657.33 534.91,634.99 C 464.64,657.33 605.18,592.60 675.45,550.21 C 605.18,592.60 745.72,635.11 816.00,720.01 C 745.72,635.11 886.27,649.81 956.54,579.60 C 886.27,649.81 1026.81,598.36 1097.08,617.13 C 1026.81,598.36 1167.35,634.69 1237.62,652.26 C 1167.35,634.69 1307.89,639.62 1378.17,626.99 " fill="none" stroke="#2aa7ff" stroke-opacity="0.650" stroke-width="0.51" stroke-linecap="round" stroke-linejoin="round"/>
<path d="M -27.26,626.99 C 43.01,637.99 183.55,609.03 253.83,569.07 C 183.55,609.03 324.10,624.37 394.37,679.68 C 324.10,624.37 464.64,657.33 534.91,634.99 C 464.64,657.33 605.18,592.60 675.45,550.21 C 605.18,592.60 745.72,635.11 816.00,720.01 C 745.72,635.11 886.27,649.81 956.54,579.60 C 886.27,649.81 1026.81,598.36 1097.08,617.13 C 1026.81,598.36 1167.35,634.69 1237.62,652.26 C 1167.35,634.69 1307.89,639.62 1378.17,626.99 " fill="none" stroke="#bfefff" stroke-opacity="0.600" stroke-width="0.60" stroke-linecap="round" stroke-linejoin="round" opacity="0.7"/>
<circle cx="-28.15" cy="625.00" r="2.05" fill="#6fe6ff" fill-opacity="0.9"/>
<circle cx="252.87" cy="570.03" r="2.47" fill="#6fe6ff" fill-opacity="0.9"/>
<circle cx="532.95" cy="633.29" r="2.06" fill="#6fe6ff" fill-opacity="0.9"/>
<circle cx="816.18" cy="721.35" r="3.01" fill="#6fe6ff" fill-opacity="0.9"/>
<circle cx="1095.59" cy="616.36" r="1.50" fill="#6fe6ff" fill-opacity="0.9"/>
<circle cx="1379.61" cy="628.58" r="2.79" fill="#6fe6ff" fill-opacity="0.9"/>
<path d="M -230.91,282.61 C -151.70,299.96 6.71,326.61 85.91,335.91 C 6.71,326.61 165.12,291.83 244.32,247.75 C 165.12,291.83 323.53,202.05 402.73,156.35 C 323.53,202.05 481.93,187.31 561.14,218.26 C 481.93,187.31 640.34,296.84 719.55,375.43 C 640.34,296.84 798.75,396.84 877.96,418.25 C 798.75,396.84 957.16,358.59 1036.37,298.92 C 957.16,358.59 1115.57,246.42 1194.78,193.91 C 1115.57,246.42 1273.98,208.61 1353.19,223.32 C 1273.98,208.61 1432.39,257.00 1511.60,290.67 C 1432.39,257.00 1590.80,286.64 1670.00,282.61 " fill="none" stroke="#4fe0d8" stroke-opacity="0.262" stroke-width="12.49" stroke-linecap="round" stroke-linejoin="round" filter="url(#glow)"/>
<path d="M -230.91,282.61 C -151.70,299.96 6.71,326.61 85.91,335.91 C 6.71,326.61 165.12,291.83 244.32,247.75 C 165.12,291.83 323.53,202.05 402.73,156.35 C 323.53,202.05 481.93,187.31 561.14,218.26 C 481.93,187.31 640.34,296.84 719.55,375.43 C 640.34,296.84 798.75,396.84 877.96,418.25 C 798.75,396.84 957.16,358.59 1036.37,298.92 C 957.16,358.59 1115.57,246.42 1194.78,193.91 C 1115.57,246.42 1273.98,208.61 1353.19,223.32 C 1273.98,208.61 1432.39,257.00 1511.60,290.67 C 1432.39,257.00 1590.80,286.64 1670.00,282.61 " fill="none" stroke="#4fe0d8" stroke-opacity="0.750" stroke-width="2.08" stroke-linecap="round" stroke-linejoin="round"/>
<path d="M -230.91,282.61 C -151.70,299.96 6.71,326.61 85.91,335.91 C 6.71,326.61 165.12,291.83 244.32,247.75 C 165.12,291.83 323.53,202.05 402.73,156.35 C 323.53,202.05 481.93,187.31 561.14,218.26 C 481.93,187.31 640.34,296.84 719.55,375.43 C 640.34,296.84 798.75,396.84 877.96,418.25 C 798.75,396.84 957.16,358.59 1036.37,298.92 C 957.16,358.59 1115.57,246.42 1194.78,193.91 C 1115.57,246.42 1273.98,208.61 1353.19,223.32 C 1273.98,208.61 1432.39,257.00 1511.60,290.67 C 1432.39,257.00 1590.80,286.64 1670.00,282.61 " fill="none" stroke="#bfefff" stroke-opacity="0.600" stroke-width="0.73" stroke-linecap="round" stroke-linejoin="round" opacity="0.7"/>
<circle cx="-232.26" cy="283.81" r="1.67" fill="#6fe6ff" fill-opacity="0.9"/>
<circle cx="84.63" cy="337.60" r="2.02" fill="#6fe6ff" fill-opacity="0.9"/>
<circle cx="403.41" cy="157.29" r="2.02" fill="#6fe6ff" fill-opacity="0.9"/>
<circle cx="720.35" cy="374.96" r="1.52" fill="#ff8a50" fill-opacity="0.9"/>
<circle cx="1035.17" cy="300.60" r="2.14" fill="#6fe6ff" fill-opacity="0.9"/>
<circle cx="1354.67" cy="222.21" r="2.84" fill="#6fe6ff" fill-opacity="0.9"/>
<circle cx="1669.12" cy="280.89" r="2.00" fill="#6fe6ff" fill-opacity="0.9"/>
<path d="M -85.07,546.09 C 5.15,566.82 185.58,591.50 275.80,595.44 C 185.58,591.50 366.02,537.76 456.23,480.08 C 366.02,537.76 546.45,448.88 636.67,417.68 C 546.45,448.88 726.88,480.43 817.10,543.19 C 726.88,480.43 907.32,607.99 997.53,672.78 C 907.32,607.99 1087.75,644.34 1177.97,615.89 C 1087.75,644.34 1268.18,557.71 1358.40,499.54 C 1268.18,557.71 1448.62,501.83 1538.84,504.11 C 1448.62,501.83 1629.05,525.10 1719.27,546.09 " fill="none" stroke="#2aa7ff" stroke-opacity="0.227" stroke-width="3.23" stroke-linecap="round" stroke-linejoin="round" filter="url(#glow)"/>
<path d="M -85.07,546.09 C 5.15,566.82 185.58,591.50 275.80,595.44 C 185.58,591.50 366.02,537.76 456.23,480.08 C 366.02,537.76 546.45,448.88 636.67,417.68 C 546.45,448.88 726.88,480.43 817.10,543.19 C 726.88,480.43 907.32,607.99 997.53,672.78 C 907.32,607.99 1087.75,644.34 1177.97,615.89 C 1087.75,644.34 1268.18,557.71 1358.40,499.54 C 1268.18,557.71 1448.62,501.83 1538.84,504.11 C 1448.62,501.83 1629.05,525.10 1719.27,546.09 " fill="none" stroke="#2aa7ff" stroke-opacity="0.650" stroke-width="0.54" stroke-linecap="round" stroke-linejoin="round"/>
<path d="M -85.07,546.09 C 5.15,566.82 185.58,591.50 275.80,595.44 C 185.58,591.50 366.02,537.76 456.23,480.08 C 366.02,537.76 546.45,448.88 636.67,417.68 C 546.45,448.88 726.88,480.43 817.10,543.19 C 726.88,480.43 907.32,607.99 997.53,672.78 C 907.32,607.99 1087.75,644.34 1177.97,615.89 C 1087.75,644.34 1268.18,557.71 1358.40,499.54 C 1268.18,557.71 1448.62,501.83 1538.84,504.11 C 1448.62,501.83 1629.05,525.10 1719.27,546.09 " fill="none" stroke="#bfefff" stroke-opacity="0.600" stroke-width="0.60" stroke-linecap="round" stroke-linejoin="round" opacity="0.7"/>
<circle cx="-86.35" cy="547.95" r="3.14" fill="#6fe6ff" fill-opacity="0.9"/>
<circle cx="275.54" cy="596.36" r="1.42" fill="#6fe6ff" fill-opacity="0.9"/>
<circle cx="636.71" cy="417.22" r="2.41" fill="#6fe6ff" fill-opacity="0.9"/>
<circle cx="998.37" cy="670.79" r="1.71" fill="#6fe6ff" fill-opacity="0.9"/>
<circle cx="1359.28" cy="500.50" r="2.28" fill="#6fe6ff" fill-opacity="0.9"/>
<circle cx="1717.55" cy="546.75" r="1.93" fill="#6fe6ff" fill-opacity="0.9"/>
<path d="M -140.12,765.51 C -82.53,770.61 32.65,785.13 90.25,794.57 C 32.65,785.13 147.84,796.19 205.43,797.81 C 147.84,796.19 263.03,784.70 320.62,771.59 C 263.03,784.70 378.21,749.58 435.80,727.57 C 378.21,749.58 493.40,711.92 550.99,696.28 C 493.40,711.92 608.58,699.85 666.17,703.42 C 608.58,699.85 723.77,725.92 781.36,748.43 C 723.77,725.92 838.95,775.83 896.54,803.24 C 838.95,775.83 954.14,818.10 1011.73,832.96 C 954.14,818.10 1069.32,827.37 1126.91,821.77 C 1069.32,827.37 1184.51,802.61 1242.10,783.44 C 1184.51,802.61 1299.69,765.92 1357.29,748.40 C 1299.69,765.92 1414.88,743.54 1472.47,738.67 C 1414.88,743.54 1530.06,745.15 1587.66,751.63 C 1530.06,745.15 1645.25,758.57 1702.84,765.51 " fill="none" stroke="#2aa7ff" stroke-opacity="0.227" stroke-width="4.75" stroke-linecap="round" stroke-linejoin="round" filter="url(#glow)"/>
<path d="M -140.12,765.51 C -82.53,770.61 32.65,785.13 90.25,794.57 C 32.65,785.13 147.84,796.19 205.43,797.81 C 147.84,796.19 263.03,784.70 320.62,771.59 C 263.03,784.70 378.21,749.58 435.80,727.57 C 378.21,749.58 493.40,711.92 550.99,696.28 C 493.40,711.92 608.58,699.85 666.17,703.42 C 608.58,699.85 723.77,725.92 781.36,748.43 C 723.77,725.92 838.95,775.83 896.54,803.24 C 838.95,775.83 954.14,818.10 1011.73,832.96 C 954.14,818.10 1069.32,827.37 1126.91,821.77 C 1069.32,827.37 1184.51,802.61 1242.10,783.44 C 1184.51,802.61 1299.69,765.92 1357.29,748.40 C 1299.69,765.92 1414.88,743.54 1472.47,738.67 C 1414.88,743.54 1530.06,745.15 1587.66,751.63 C 1530.06,745.15 1645.25,758.57 1702.84,765.51 " fill="none" stroke="#2aa7ff" stroke-opacity="0.650" stroke-width="0.79" stroke-linecap="round" stroke-linejoin="round"/>
<path d="M -140.12,765.51 C -82.53,770.61 32.65,785.13 90.25,794.57 C 32.65,785.13 147.84,796.19 205.43,797.81 C 147.84,796.19 263.03,784.70 320.62,771.59 C 263.03,784.70 378.21,749.58 435.80,727.57 C 378.21,749.58 493.40,711.92 550.99,696.28 C 493.40,711.92 608.58,699.85 666.17,703.42 C 608.58,699.85 723.77,725.92 781.36,748.43 C 723.77,725.92 838.95,775.83 896.54,803.24 C 838.95,775.83 954.14,818.10 1011.73,832.96 C 954.14,818.10 1069.32,827.37 1126.91,821.77 C 1069.32,827.37 1184.51,802.61 1242.10,783.44 C 1184.51,802.61 1299.69,765.92 1357.29,748.40 C 1299.69,765.92 1414.88,743.54 1472.47,738.67 C 1414.88,743.54 1530.06,745.15 1587.66,751.63 C 1530.06,745.15 1645.25,758.57 1702.84,765.51 " fill="none" stroke="#bfefff" stroke-opacity="0.600" stroke-width="0.60" stroke-linecap="round" stroke-linejoin="round" opacity="0.7"/>
<circle cx="-139.91" cy="764.28" r="2.59" fill="#6fe6ff" fill-opacity="0.9"/>
<circle cx="91.24" cy="793.26" r="1.96" fill="#6fe6ff" fill-opacity="0.9"/>
<circle cx="321.95" cy="770.81" r="2.01" fill="#6fe6ff" fill-opacity="0.9"/>
<circle cx="551.42" cy="695.56" r="2.77" fill="#6fe6ff" fill-opacity="0.9"/>
<circle cx="781.40" cy="749.60" r="2.55" fill="#6fe6ff" fill-opacity="0.9"/>
<circle cx="1012.36" cy="832.10" r="2.67" fill="#6fe6ff" fill-opacity="0.9"/>
<circle cx="1240.47" cy="785.25" r="2.44" fill="#6fe6ff" fill-opacity="0.9"/>
<circle cx="1473.70" cy="737.26" r="1.82" fill="#ff8a50" fill-opacity="0.9"/>
<circle cx="1703.29" cy="766.59" r="3.17" fill="#6fe6ff" fill-opacity="0.9"/>
<path d="M 409.89,589.03 C 486.62,599.21 640.09,615.22 716.82,621.05 C 640.09,615.22 793.55,595.69 870.29,570.32 C 793.55,595.69 947.02,542.62 1023.76,514.92 C 947.02,542.62 1100.49,531.09 1177.22,547.27 C 1100.49,531.09 1253.96,593.33 1330.69,639.40 C 1253.96,593.33 1407.43,654.91 1484.16,670.43 C 1407.43,654.91 1560.89,637.64 1637.63,604.85 C 1560.89,637.64 1714.36,572.41 1791.09,539.97 C 1714.36,572.41 1867.83,545.81 1944.56,551.65 C 1867.83,545.81 2021.30,571.44 2098.03,591.23 C 2021.30,571.44 2174.76,590.13 2251.50,589.03 " fill="none" stroke="#ff8a50" stroke-opacity="0.315" stroke-width="8.12" stroke-linecap="round" stroke-linejoin="round" filter="url(#glow)"/>
<path d="M 409.89,589.03 C 486.62,599.21 640.09,615.22 716.82,621.05 C 640.09,615.22 793.55,595.69 870.29,570.32 C 793.55,595.69 947.02,542.62 1023.76,514.92 C 947.02,542.62 1100.49,531.09 1177.22,547.27 C 1100.49,531.09 1253.96,593.33 1330.69,639.40 C 1253.96,593.33 1407.43,654.91 1484.16,670.43 C 1407.43,654.91 1560.89,637.64 1637.63,604.85 C 1560.89,637.64 1714.36,572.41 1791.09,539.97 C 1714.36,572.41 1867.83,545.81 1944.56,551.65 C 1867.83,545.81 2021.30,571.44 2098.03,591.23 C 2021.30,571.44 2174.76,590.13 2251.50,589.03 " fill="none" stroke="#ff8a50" stroke-opacity="0.900" stroke-width="1.35" stroke-linecap="round" stroke-linejoin="round"/>
<path d="M 409.89,589.03 C 486.62,599.21 640.09,615.22 716.82,621.05 C 640.09,615.22 793.55,595.69 870.29,570.32 C 793.55,595.69 947.02,542.62 1023.76,514.92 C 947.02,542.62 1100.49,531.09 1177.22,547.27 C 1100.49,531.09 1253.96,593.33 1330.69,639.40 C 1253.96,593.33 1407.43,654.91 1484.16,670.43 C 1407.43,654.91 1560.89,637.64 1637.63,604.85 C 1560.89,637.64 1714.36,572.41 1791.09,539.97 C 1714.36,572.41 1867.83,545.81 1944.56,551.65 C 1867.83,545.81 2021.30,571.44 2098.03,591.23 C 2021.30,571.44 2174.76,590.13 2251.50,589.03 " fill="none" stroke="#bfefff" stroke-opacity="0.600" stroke-width="0.60" stroke-linecap="round" stroke-linejoin="round" opacity="0.7"/>
<circle cx="410.89" cy="590.11" r="1.21" fill="#ff8a50" fill-opacity="0.9"/>
<circle cx="715.52" cy="622.88" r="2.05" fill="#6fe6ff" fill-opacity="0.9"/>
<circle cx="1022.75" cy="516.31" r="1.30" fill="#6fe6ff" fill-opacity="0.9"/>
<circle cx="1331.36" cy="641.35" r="2.80" fill="#6fe6ff" fill-opacity="0.9"/>
<circle cx="1639.19" cy="605.30" r="3.10" fill="#6fe6ff" fill-opacity="0.9"/>
<circle cx="1945.88" cy="551.84" r="2.21" fill="#6fe6ff" fill-opacity="0.9"/>
<circle cx="2251.40" cy="588.07" r="2.69" fill="#6fe6ff" fill-opacity="0.9"/>
<path d="M 265.93,712.25 C 341.04,726.26 491.26,753.40 566.38,766.53 C 491.26,753.40 641.49,740.10 716.60,713.67 C 641.49,740.10 791.71,668.16 866.82,622.65 C 791.71,668.16 941.93,617.31 1017.04,611.97 C 941.93,617.31 1092.15,660.25 1167.27,708.52 C 1092.15,660.25 1242.38,754.73 1317.49,800.94 C 1242.38,754.73 1392.60,795.21 1467.71,789.48 C 1392.60,795.21 1542.82,752.39 1617.93,715.30 C 1542.82,752.39 1693.05,700.18 1768.16,685.06 C 1693.05,700.18 1843.27,698.66 1918.38,712.25 " fill="none" stroke="#2aa7ff" stroke-opacity="0.227" stroke-width="7.54" stroke-linecap="round" stroke-linejoin="round" filter="url(#glow)"/>
<path d="M 265.93,712.25 C 341.04,726.26 491.26,753.40 566.38,766.53 C 491.26,753.40 641.49,740.10 716.60,713.67 C 641.49,740.10 791.71,668.16 866.82,622.65 C 791.71,668.16 941.93,617.31 1017.04,611.97 C 941.93,617.31 1092.15,660.25 1167.27,708.52 C 1092.15,660.25 1242.38,754.73 1317.49,800.94 C 1242.38,754.73 1392.60,795.21 1467.71,789.48 C 1392.60,795.21 1542.82,752.39 1617.93,715.30 C 1542.82,752.39 1693.05,700.18 1768.16,685.06 C 1693.05,700.18 1843.27,698.66 1918.38,712.25 " fill="none" stroke="#2aa7ff" stroke-opacity="0.650" stroke-width="1.26" stroke-linecap="round" stroke-linejoin="round"/>
<path d="M 265.93,712.25 C 341.04,726.26 491.26,753.40 566.38,766.53 C 491.26,753.40 641.49,740.10 716.60,713.67 C 641.49,740.10 791.71,668.16 866.82,622.65 C 791.71,668.16 941.93,617.31 1017.04,611.97 C 941.93,617.31 1092.15,660.25 1167.27,708.52 C 1092.15,660.25 1242.38,754.73 1317.49,800.94 C 1242.38,754.73 1392.60,795.21 1467.71,789.48 C 1392.60,795.21 1542.82,752.39 1617.93,715.30 C 1542.82,752.39 1693.05,700.18 1768.16,685.06 C 1693.05,700.18 1843.27,698.66 1918.38,712.25 " fill="none" stroke="#bfefff" stroke-opacity="0.600" stroke-width="0.60" stroke-linecap="round" stroke-linejoin="round" opacity="0.7"/>
<circle cx="265.27" cy="713.82" r="1.67" fill="#ff8a50" fill-opacity="0.9"/>
<circle cx="565.91" cy="765.14" r="1.50" fill="#6fe6ff" fill-opacity="0.9"/>
<circle cx="866.14" cy="622.52" r="2.03" fill="#ff8a50" fill-opacity="0.9"/>
<circle cx="1166.82" cy="709.60" r="2.87" fill="#6fe6ff" fill-opacity="0.9"/>
<circle cx="1469.23" cy="789.78" r="1.24" fill="#6fe6ff" fill-opacity="0.9"/>
<circle cx="1767.35" cy="684.62" r="3.09" fill="#6fe6ff" fill-opacity="0.9"/>
<path d="M 353.68,564.77 C 408.30,577.00 517.55,586.82 572.18,584.41 C 517.55,586.82 626.80,545.40 681.42,506.38 C 626.80,545.40 736.05,502.00 790.67,497.61 C 736.05,502.00 845.30,559.19 899.92,620.77 C 845.30,559.19 954.55,650.22 1009.17,679.67 C 954.55,650.22 1063.80,613.68 1118.42,547.70 C 1063.80,613.68 1173.05,488.72 1227.67,429.74 C 1173.05,488.72 1282.30,478.51 1336.92,527.27 C 1282.30,478.51 1391.55,603.84 1446.17,680.40 C 1391.55,603.84 1500.80,661.42 1555.42,642.44 C 1500.80,661.42 1610.05,569.78 1664.67,497.11 C 1610.05,569.78 1719.30,490.05 1773.92,482.98 C 1719.30,490.05 1828.55,533.13 1883.17,583.29 C 1828.55,533.13 1937.80,598.55 1992.42,613.81 C 1937.80,598.55 2047.05,591.15 2101.67,568.49 C 2047.05,591.15 2156.30,566.63 2210.92,564.77 " fill="none" stroke="#2aa7ff" stroke-opacity="0.227" stroke-width="3.98" stroke-linecap="round" stroke-linejoin="round" filter="url(#glow)"/>
<path d="M 353.68,564.77 C 408.30,577.00 517.55,586.82 572.18,584.41 C 517.55,586.82 626.80,545.40 681.42,506.38 C 626.80,545.40 736.05,502.00 790.67,497.61 C 736.05,502.00 845.30,559.19 899.92,620.77 C 845.30,559.19 954.55,650.22 1009.17,679.67 C 954.55,650.22 1063.80,613.68 1118.42,547.70 C 1063.80,613.68 1173.05,488.72 1227.67,429.74 C 1173.05,488.72 1282.30,478.51 1336.92,527.27 C 1282.30,478.51 1391.55,603.84 1446.17,680.40 C 1391.55,603.84 1500.80,661.42 1555.42,642.44 C 1500.80,661.42 1610.05,569.78 1664.67,497.11 C 1610.05,569.78 1719.30,490.05 1773.92,482.98 C 1719.30,490.05 1828.55,533.13 1883.17,583.29 C 1828.55,533.13 1937.80,598.55 1992.42,613.81 C 1937.80,598.55 2047.05,591.15 2101.67,568.49 C 2047.05,591.15 2156.30,566.63 2210.92,564.77 " fill="none" stroke="#2aa7ff" stroke-opacity="0.650" stroke-width="0.66" stroke-linecap="round" stroke-linejoin="round"/>
<path d="M 353.68,564.77 C 408.30,577.00 517.55,586.82 572.18,584.41 C 517.55,586.82 626.80,545.40 681.42,506.38 C 626.80,545.40 736.05,502.00 790.67,497.61 C 736.05,502.00 845.30,559.19 899.92,620.77 C 845.30,559.19 954.55,650.22 1009.17,679.67 C 954.55,650.22 1063.80,613.68 1118.42,547.70 C 1063.80,613.68 1173.05,488.72 1227.67,429.74 C 1173.05,488.72 1282.30,478.51 1336.92,527.27 C 1282.30,478.51 1391.55,603.84 1446.17,680.40 C 1391.55,603.84 1500.80,661.42 1555.42,642.44 C 1500.80,661.42 1610.05,569.78 1664.67,497.11 C 1610.05,569.78 1719.30,490.05 1773.92,482.98 C 1719.30,490.05 1828.55,533.13 1883.17,583.29 C 1828.55,533.13 1937.80,598.55 1992.42,613.81 C 1937.80,598.55 2047.05,591.15 2101.67,568.49 C 2047.05,591.15 2156.30,566.63 2210.92,564.77 " fill="none" stroke="#bfefff" stroke-opacity="0.600" stroke-width="0.60" stroke-linecap="round" stroke-linejoin="round" opacity="0.7"/>
<circle cx="351.79" cy="564.11" r="2.07" fill="#6fe6ff" fill-opacity="0.9"/>
<circle cx="570.84" cy="584.28" r="2.01" fill="#6fe6ff" fill-opacity="0.9"/>
<circle cx="788.78" cy="497.19" r="2.44" fill="#6fe6ff" fill-opacity="0.9"/>
<circle cx="1009.75" cy="678.21" r="1.25" fill="#6fe6ff" fill-opacity="0.9"/>
<circle cx="1227.19" cy="428.59" r="1.30" fill="#6fe6ff" fill-opacity="0.9"/>
<circle cx="1445.69" cy="681.41" r="2.72" fill="#6fe6ff" fill-opacity="0.9"/>
<circle cx="1663.00" cy="495.19" r="1.70" fill="#6fe6ff" fill-opacity="0.9"/>
<circle cx="1882.57" cy="583.89" r="3.20" fill="#6fe6ff" fill-opacity="0.9"/>
<circle cx="2102.69" cy="570.29" r="2.50" fill="#6fe6ff" fill-opacity="0.9"/>
<path d="M -137.02,314.74 C -88.05,328.62 9.88,342.99 58.85,343.47 C 9.88,342.99 107.82,301.57 156.79,259.68 C 107.82,301.57 205.76,243.56 254.72,227.45 C 205.76,243.56 303.69,283.49 352.66,339.53 C 303.69,283.49 401.63,386.80 450.60,434.07 C 401.63,386.80 499.56,393.04 548.53,352.02 C 499.56,393.04 597.50,286.55 646.47,221.07 C 597.50,286.55 695.44,230.48 744.41,239.90 C 695.44,230.48 793.37,294.47 842.34,349.04 C 793.37,294.47 891.31,359.43 940.28,369.82 C 891.31,359.43 989.25,343.65 1038.21,317.48 C 989.25,343.65 1087.18,316.11 1136.15,314.74 " fill="none" stroke="#4fe0d8" stroke-opacity="0.262" stroke-width="8.06" stroke-linecap="round" stroke-linejoin="round" filter="url(#glow)"/>
<path d="M -137.02,314.74 C -88.05,328.62 9.88,342.99 58.85,343.47 C 9.88,342.99 107.82,301.57 156.79,259.68 C 107.82,301.57 205.76,243.56 254.72,227.45 C 205.76,243.56 303.69,283.49 352.66,339.53 C 303.69,283.49 401.63,386.80 450.60,434.07 C 401.63,386.80 499.56,393.04 548.53,352.02 C 499.56,393.04 597.50,286.55 646.47,221.07 C 597.50,286.55 695.44,230.48 744.41,239.90 C 695.44,230.48 793.37,294.47 842.34,349.04 C 793.37,294.47 891.31,359.43 940.28,369.82 C 891.31,359.43 989.25,343.65 1038.21,317.48 C 989.25,343.65 1087.18,316.11 1136.15,314.74 " fill="none" stroke="#4fe0d8" stroke-opacity="0.750" stroke-width="1.34" stroke-linecap="round" stroke-linejoin="round"/>
<path d="M -137.02,314.74 C -88.05,328.62 9.88,342.99 58.85,343.47 C 9.88,342.99 107.82,301.57 156.79,259.68 C 107.82,301.57 205.76,243.56 254.72,227.45 C 205.76,243.56 303.69,283.49 352.66,339.53 C 303.69,283.49 401.63,386.80 450.60,434.07 C 401.63,386.80 499.56,393.04 548.53,352.02 C 499.56,393.04 597.50,286.55 646.47,221.07 C 597.50,286.55 695.44,230.48 744.41,239.90 C 695.44,230.48 793.37,294.47 842.34,349.04 C 793.37,294.47 891.31,359.43 940.28,369.82 C 891.31,359.43 989.25,343.65 1038.21,317.48 C 989.25,343.65 1087.18,316.11 1136.15,314.74 " fill="none" stroke="#bfefff" stroke-opacity="0.600" stroke-width="0.60" stroke-linecap="round" stroke-linejoin="round" opacity="0.7"/>
<circle cx="-137.55" cy="315.17" r="1.71" fill="#6fe6ff" fill-opacity="0.9"/>
<circle cx="59.96" cy="342.13" r="2.64" fill="#6fe6ff" fill-opacity="0.9"/>
<circle cx="256.44" cy="227.75" r="2.36" fill="#6fe6ff" fill-opacity="0.9"/>
<circle cx="452.36" cy="432.86" r="1.95" fill="#6fe6ff" fill-opacity="0.9"/>
<circle cx="645.44" cy="221.86" r="2.86" fill="#6fe6ff" fill-opacity="0.9"/>
<circle cx="843.56" cy="350.22" r="2.57" fill="#6fe6ff" fill-opacity="0.9"/>
<circle cx="1038.35" cy="318.13" r="1.28" fill="#ff8a50" fill-opacity="0.9"/>
<path d="M 324.01,224.20 C 375.86,232.64 479.54,251.47 531.38,261.87 C 479.54,251.47 583.22,250.24 635.06,238.60 C 583.22,250.24 686.91,207.38 738.75,176.16 C 686.91,207.38 790.59,157.63 842.43,139.09 C 790.59,157.63 894.27,159.07 946.12,179.04 C 894.27,159.07 997.96,223.54 1049.80,268.05 C 997.96,223.54 1101.64,294.75 1153.48,321.45 C 1101.64,294.75 1205.33,304.92 1257.17,288.39 C 1205.33,304.92 1309.01,247.30 1360.85,206.20 C 1309.01,247.30 1412.69,181.31 1464.53,156.42 C 1412.69,181.31 1516.38,165.83 1568.22,175.24 C 1516.38,165.83 1620.06,198.94 1671.90,222.64 C 1620.06,198.94 1723.74,231.62 1775.59,240.61 C 1723.74,231.62 1827.43,232.40 1879.27,224.20 " fill="none" stroke="#2aa7ff" stroke-opacity="0.227" stroke-width="6.98" stroke-linecap="round" stroke-linejoin="round" filter="url(#glow)"/>
<path d="M 324.01,224.20 C 375.86,232.64 479.54,251.47 531.38,261.87 C 479.54,251.47 583.22,250.24 635.06,238.60 C 583.22,250.24 686.91,207.38 738.75,176.16 C 686.91,207.38 790.59,157.63 842.43,139.09 C 790.59,157.63 894.27,159.07 946.12,179.04 C 894.27,159.07 997.96,223.54 1049.80,268.05 C 997.96,223.54 1101.64,294.75 1153.48,321.45 C 1101.64,294.75 1205.33,304.92 1257.17,288.39 C 1205.33,304.92 1309.01,247.30 1360.85,206.20 C 1309.01,247.30 1412.69,181.31 1464.53,156.42 C 1412.69,181.31 1516.38,165.83 1568.22,175.24 C 1516.38,165.83 1620.06,198.94 1671.90,222.64 C 1620.06,198.94 1723.74,231.62 1775.59,240.61 C 1723.74,231.62 1827.43,232.40 1879.27,224.20 " fill="none" stroke="#2aa7ff" stroke-opacity="0.650" stroke-width="1.16" stroke-linecap="round" stroke-linejoin="round"/>
<path d="M 324.01,224.20 C 375.86,232.64 479.54,251.47 531.38,261.87 C 479.54,251.47 583.22,250.24 635.06,238.60 C 583.22,250.24 686.91,207.38 738.75,176.16 C 686.91,207.38 790.59,157.63 842.43,139.09 C 790.59,157.63 894.27,159.07 946.12,179.04 C 894.27,159.07 997.96,223.54 1049.80,268.05 C 997.96,223.54 1101.64,294.75 1153.48,321.45 C 1101.64,294.75 1205.33,304.92 1257.17,288.39 C 1205.33,304.92 1309.01,247.30 1360.85,206.20 C 1309.01,247.30 1412.69,181.31 1464.53,156.42 C 1412.69,181.31 1516.38,165.83 1568.22,175.24 C 1516.38,165.83 1620.06,198.94 1671.90,222.64 C 1620.06,198.94 1723.74,231.62 1775.59,240.61 C 1723.74,231.62 1827.43,232.40 1879.27,224.20 " fill="none" stroke="#bfefff" stroke-opacity="0.600" stroke-width="0.60" stroke-linecap="round" stroke-linejoin="round" opacity="0.7"/>
<circle cx="324.84" cy="223.94" r="2.86" fill="#6fe6ff" fill-opacity="0.9"/>
<circle cx="530.46" cy="263.10" r="3.13" fill="#6fe6ff" fill-opacity="0.9"/>
<circle cx="738.49" cy="177.08" r="2.17" fill="#6fe6ff" fill-opacity="0.9"/>
<circle cx="947.44" cy="177.38" r="2.90" fill="#6fe6ff" fill-opacity="0.9"/>
<circle cx="1153.34" cy="321.90" r="1.69" fill="#6fe6ff" fill-opacity="0.9"/>
<circle cx="1362.25" cy="204.93" r="1.26" fill="#6fe6ff" fill-opacity="0.9"/>
<circle cx="1567.58" cy="176.76" r="2.80" fill="#6fe6ff" fill-opacity="0.9"/>
<circle cx="1773.63" cy="242.40" r="1.75" fill="#ff8a50" fill-opacity="0.9"/>
<path d="M 231.35,532.60 C 286.64,542.59 397.22,560.89 452.51,569.21 C 397.22,560.89 507.80,547.17 563.09,525.13 C 507.80,547.17 618.38,490.26 673.67,455.40 C 618.38,490.26 728.96,457.03 784.25,458.65 C 728.96,457.03 839.54,508.24 894.82,557.83 C 839.54,508.24 950.11,602.42 1005.40,647.00 C 950.11,602.42 1060.69,630.99 1115.98,614.97 C 1060.69,630.99 1171.27,552.97 1226.56,490.97 C 1171.27,552.97 1281.85,453.25 1337.14,415.54 C 1281.85,453.25 1392.43,441.99 1447.72,468.43 C 1392.43,441.99 1503.01,522.41 1558.30,576.39 C 1503.01,522.41 1613.59,595.87 1668.88,615.36 C 1613.59,595.87 1724.17,589.69 1779.45,564.01 C 1724.17,589.69 1834.74,536.17 1890.03,508.32 C 1834.74,536.17 1945.32,509.22 2000.61,510.12 C 1945.32,509.22 2055.90,521.36 2111.19,532.60 " fill="none" stroke="#2aa7ff" stroke-opacity="0.227" stroke-width="5.63" stroke-linecap="round" stroke-linejoin="round" filter="url(#glow)"/>
<path d="M 231.35,532.60 C 286.64,542.59 397.22,560.89 452.51,569.21 C 397.22,560.89 507.80,547.17 563.09,525.13 C 507.80,547.17 618.38,490.26 673.67,455.40 C 618.38,490.26 728.96,457.03 784.25,458.65 C 728.96,457.03 839.54,508.24 894.82,557.83 C 839.54,508.24 950.11,602.42 1005.40,647.00 C 950.11,602.42 1060.69,630.99 1115.98,614.97 C 1060.69,630.99 1171.27,552.97 1226.56,490.97 C 1171.27,552.97 1281.85,453.25 1337.14,415.54 C 1281.85,453.25 1392.43,441.99 1447.72,468.43 C 1392.43,441.99 1503.01,522.41 1558.30,576.39 C 1503.01,522.41 1613.59,595.87 1668.88,615.36 C 1613.59,595.87 1724.17,589.69 1779.45,564.01 C 1724.17,589.69 1834.74,536.17 1890.03,508.32 C 1834.74,536.17 1945.32,509.22 2000.61,510.12 C 1945.32,509.22 2055.90,521.36 2111.19,532.60 " fill="none" stroke="#2aa7ff" stroke-opacity="0.650" stroke-width="0.94" stroke-linecap="round" stroke-linejoin="round"/>
<path d="M 231.35,532.60 C 286.64,542.59 397.22,560.89 452.51,569.21 C 397.22,560.89 507.80,547.17 563.09,525.13 C 507.80,547.17 618.38,490.26 673.67,455.40 C 618.38,490.26 728.96,457.03 784.25,458.65 C 728.96,457.03 839.54,508.24 894.82,557.83 C 839.54,508.24 950.11,602.42 1005.40,647.00 C 950.11,602.42 1060.69,630.99 1115.98,614.97 C 1060.69,630.99 1171.27,552.97 1226.56,490.97 C 1171.27,552.97 1281.85,453.25 1337.14,415.54 C 1281.85,453.25 1392.43,441.99 1447.72,468.43 C 1392.43,441.99 1503.01,522.41 1558.30,576.39 C 1503.01,522.41 1613.59,595.87 1668.88,615.36 C 1613.59,595.87 1724.17,589.69 1779.45,564.01 C 1724.17,589.69 1834.74,536.17 1890.03,508.32 C 1834.74,536.17 1945.32,509.22 2000.61,510.12 C 1945.32,509.22 2055.90,521.36 2111.19,532.60 " fill="none" stroke="#bfefff" stroke-opacity="0.600" stroke-width="0.60" stroke-linecap="round" stroke-linejoin="round" opacity="0.7"/>
<circle cx="230.53" cy="532.22" r="1.23" fill="#6fe6ff" fill-opacity="0.9"/>
<circle cx="451.99" cy="569.43" r="2.53" fill="#6fe6ff" fill-opacity="0.9"/>
<circle cx="673.87" cy="454.81" r="3.19" fill="#6fe6ff" fill-opacity="0.9"/>
<circle cx="893.75" cy="558.72" r="1.81" fill="#6fe6ff" fill-opacity="0.9"/>
<circle cx="1117.79" cy="615.73" r="2.69" fill="#6fe6ff" fill-opacity="0.9"/>
<circle cx="1336.25" cy="415.90" r="2.68" fill="#6fe6ff" fill-opacity="0.9"/>
<circle cx="1560.22" cy="577.72" r="2.39" fill="#6fe6ff" fill-opacity="0.9"/>
<circle cx="1778.66" cy="564.85" r="1.92" fill="#6fe6ff" fill-opacity="0.9"/>
<circle cx="1998.83" cy="509.29" r="1.29" fill="#6fe6ff" fill-opacity="0.9"/>
<path d="M 467.11,703.81 C 503.89,706.22 577.45,713.56 614.23,718.49 C 577.45,713.56 651.01,720.81 687.79,723.14 C 651.01,720.81 724.57,718.94 761.34,714.74 C 724.57,718.94 798.12,704.66 834.90,694.57 C 798.12,704.66 871.68,683.91 908.46,673.24 C 871.68,683.91 945.24,668.64 982.02,664.05 C 945.24,668.64 1018.80,669.06 1055.58,674.07 C 1018.80,669.06 1092.35,686.48 1129.13,698.89 C 1092.35,686.48 1165.91,712.04 1202.69,725.18 C 1165.91,712.04 1239.47,732.11 1276.25,739.04 C 1239.47,732.11 1313.03,736.89 1349.81,734.73 C 1313.03,736.89 1386.59,726.23 1423.37,717.73 C 1386.59,726.23 1460.14,708.99 1496.92,700.26 C 1460.14,708.99 1533.70,696.41 1570.48,692.57 C 1533.70,696.41 1607.26,694.38 1644.04,696.19 C 1607.26,694.38 1680.82,700.00 1717.60,703.81 " fill="none" stroke="#ff8a50" stroke-opacity="0.315" stroke-width="6.44" stroke-linecap="round" stroke-linejoin="round" filter="url(#glow)"/>
<path d="M 467.11,703.81 C 503.89,706.22 577.45,713.56 614.23,718.49 C 577.45,713.56 651.01,720.81 687.79,723.14 C 651.01,720.81 724.57,718.94 761.34,714.74 C 724.57,718.94 798.12,704.66 834.90,694.57 C 798.12,704.66 871.68,683.91 908.46,673.24 C 871.68,683.91 945.24,668.64 982.02,664.05 C 945.24,668.64 1018.80,669.06 1055.58,674.07 C 1018.80,669.06 1092.35,686.48 1129.13,698.89 C 1092.35,686.48 1165.91,712.04 1202.69,725.18 C 1165.91,712.04 1239.47,732.11 1276.25,739.04 C 1239.47,732.11 1313.03,736.89 1349.81,734.73 C 1313.03,736.89 1386.59,726.23 1423.37,717.73 C 1386.59,726.23 1460.14,708.99 1496.92,700.26 C 1460.14,708.99 1533.70,696.41 1570.48,692.57 C 1533.70,696.41 1607.26,694.38 1644.04,696.19 C 1607.26,694.38 1680.82,700.00 1717.60,703.81 " fill="none" stroke="#ff8a50" stroke-opacity="0.900" stroke-width="1.07" stroke-linecap="round" stroke-linejoin="round"/>
<path d="M 467.11,703.81 C 503.89,706.22 577.45,713.56 614.23,718.49 C 577.45,713.56 651.01,720.81 687.79,723.14 C 651.01,720.81 724.57,718.94 761.34,714.74 C 724.57,718.94 798.12,704.66 834.90,694.57 C 798.12,704.66 871.68,683.91 908.46,673.24 C 871.68,683.91 945.24,668.64 982.02,664.05 C 945.24,668.64 1018.80,669.06 1055.58,674.07 C 1018.80,669.06 1092.35,686.48 1129.13,698.89 C 1092.35,686.48 1165.91,712.04 1202.69,725.18 C 1165.91,712.04 1239.47,732.11 1276.25,739.04 C 1239.47,732.11 1313.03,736.89 1349.81,734.73 C 1313.03,736.89 1386.59,726.23 1423.37,717.73 C 1386.59,726.23 1460.14,708.99 1496.92,700.26 C 1460.14,708.99 1533.70,696.41 1570.48,692.57 C 1533.70,696.41 1607.26,694.38 1644.04,696.19 C 1607.26,694.38 1680.82,700.00 1717.60,703.81 " fill="none" stroke="#bfefff" stroke-opacity="0.600" stroke-width="0.60" stroke-linecap="round" stroke-linejoin="round" opacity="0.7"/>
<circle cx="465.32" cy="705.57" r="1.57" fill="#6fe6ff" fill-opacity="0.9"/>
<circle cx="613.83" cy="716.79" r="2.84" fill="#6fe6ff" fill-opacity="0.9"/>
<circle cx="759.94" cy="714.99" r="1.31" fill="#6fe6ff" fill-opacity="0.9"/>
<circle cx="906.93" cy="674.29" r="3.19" fill="#6fe6ff" fill-opacity="0.9"/>
<circle cx="1054.48" cy="674.16" r="2.78" fill="#6fe6ff" fill-opacity="0.9"/>
<circle cx="1204.13" cy="727.15" r="2.09" fill="#6fe6ff" fill-opacity="0.9"/>
<circle cx="1350.25" cy="735.69" r="2.44" fill="#6fe6ff" fill-opacity="0.9"/>
<circle cx="1495.77" cy="700.90" r="1.62" fill="#6fe6ff" fill-opacity="0.9"/>
<circle cx="1642.34" cy="694.20" r="1.55" fill="#6fe6ff" fill-opacity="0.9"/>
<path d="M 362.95,404.74 C 403.37,415.20 484.20,432.04 524.62,438.42 C 484.20,432.04 565.04,411.69 605.46,384.96 C 565.04,411.69 645.88,353.08 686.30,321.20 C 645.88,353.08 726.71,337.45 767.13,353.70 C 726.71,337.45 807.55,411.28 847.97,468.87 C 807.55,411.28 888.39,495.76 928.80,522.66 C 888.39,495.76 969.22,478.00 1009.64,433.34 C 969.22,478.00 1050.06,369.71 1090.48,306.08 C 1050.06,369.71 1130.90,302.58 1171.31,299.09 C 1130.90,302.58 1211.73,356.01 1252.15,412.93 C 1211.73,356.01 1292.57,455.65 1332.99,498.37 C 1292.57,455.65 1373.40,480.83 1413.82,463.28 C 1373.40,480.83 1454.24,421.85 1494.66,380.42 C 1454.24,421.85 1535.08,370.05 1575.49,359.68 C 1535.08,370.05 1615.91,377.07 1656.33,394.46 C 1615.91,377.07 1696.75,399.60 1737.17,404.74 " fill="none" stroke="#2aa7ff" stroke-opacity="0.227" stroke-width="2.91" stroke-linecap="round" stroke-linejoin="round" filter="url(#glow)"/>
<path d="M 362.95,404.74 C 403.37,415.20 484.20,432.04 524.62,438.42 C 484.20,432.04 565.04,411.69 605.46,384.96 C 565.04,411.69 645.88,353.08 686.30,321.20 C 645.88,353.08 726.71,337.45 767.13,353.70 C 726.71,337.45 807.55,411.28 847.97,468.87 C 807.55,411.28 888.39,495.76 928.80,522.66 C 888.39,495.76 969.22,478.00 1009.64,433.34 C 969.22,478.00 1050.06,369.71 1090.48,306.08 C 1050.06,369.71 1130.90,302.58 1171.31,299.09 C 1130.90,302.58 1211.73,356.01 1252.15,412.93 C 1211.73,356.01 1292.57,455.65 1332.99,498.37 C 1292.57,455.65 1373.40,480.83 1413.82,463.28 C 1373.40,480.83 1454.24,421.85 1494.66,380.42 C 1454.24,421.85 1535.08,370.05 1575.49,359.68 C 1535.08,370.05 1615.91,377.07 1656.33,394.46 C 1615.91,377.07 1696.75,399.60 1737.17,404.74 " fill="none" stroke="#2aa7ff" stroke-opacity="0.650" stroke-width="0.49" stroke-linecap="round" stroke-linejoin="round"/>
<path d="M 362.95,404.74 C 403.37,415.20 484.20,432.04 524.62,438.42 C 484.20,432.04 565.04,411.69 605.46,384.96 C 565.04,411.69 645.88,353.08 686.30,321.20 C 645.88,353.08 726.71,337.45 767.13,353.70 C 726.71,337.45 807.55,411.28 847.97,468.87 C 807.55,411.28 888.39,495.76 928.80,522.66 C 888.39,495.76 969.22,478.00 1009.64,433.34 C 969.22,478.00 1050.06,369.71 1090.48,306.08 C 1050.06,369.71 1130.90,302.58 1171.31,299.09 C 1130.90,302.58 1211.73,356.01 1252.15,412.93 C 1211.73,356.01 1292.57,455.65 1332.99,498.37 C 1292.57,455.65 1373.40,480.83 1413.82,463.28 C 1373.40,480.83 1454.24,421.85 1494.66,380.42 C 1454.24,421.85 1535.08,370.05 1575.49,359.68 C 1535.08,370.05 1615.91,377.07 1656.33,394.46 C 1615.91,377.07 1696.75,399.60 1737.17,404.74 " fill="none" stroke="#bfefff" stroke-opacity="0.600" stroke-width="0.60" stroke-linecap="round" stroke-linejoin="round" opacity="0.7"/>
<circle cx="362.01" cy="405.90" r="1.67" fill="#6fe6ff" fill-opacity="0.9"/>
<circle cx="523.41" cy="436.88" r="2.81" fill="#6fe6ff" fill-opacity="0.9"/>
<circle cx="685.36" cy="319.77" r="1.50" fill="#ff8a50" fill-opacity="0.9"/>
<circle cx="848.35" cy="470.16" r="2.79" fill="#6fe6ff" fill-opacity="0.9"/>
<circle cx="1009.52" cy="432.56" r="2.08" fill="#6fe6ff" fill-opacity="0.9"/>
<circle cx="1171.47" cy="298.84" r="1.74" fill="#6fe6ff" fill-opacity="0.9"/>
<circle cx="1333.92" cy="498.79" r="2.98" fill="#ff8a50" fill-opacity="0.9"/>
<circle cx="1495.36" cy="381.86" r="1.66" fill="#6fe6ff" fill-opacity="0.9"/>
<circle cx="1657.39" cy="395.75" r="1.24" fill="#6fe6ff" fill-opacity="0.9"/>
<path d="M 387.48,329.52 C 439.05,335.51 542.19,353.17 593.76,364.84 C 542.19,353.17 645.33,368.66 696.90,372.48 C 645.33,368.66 748.46,359.46 800.03,346.44 C 748.46,359.46 851.60,320.79 903.17,295.14 C 851.60,320.79 954.74,272.57 1006.31,250.00 C 954.74,272.57 1057.88,246.59 1109.45,243.18 C 1057.88,246.59 1161.02,263.23 1212.58,283.28 C 1161.02,263.23 1264.15,315.48 1315.72,347.69 C 1264.15,315.48 1367.29,372.83 1418.86,397.97 C 1367.29,372.83 1470.43,402.34 1522.00,406.71 C 1470.43,402.34 1573.57,391.26 1625.14,375.81 C 1573.57,391.26 1676.70,354.21 1728.27,332.61 C 1676.70,354.21 1779.84,320.14 1831.41,307.67 C 1779.84,320.14 1882.98,309.68 1934.55,311.69 C 1882.98,309.68 1986.12,320.61 2037.69,329.52 " fill="none" stroke="#2aa7ff" stroke-opacity="0.227" stroke-width="6.97" stroke-linecap="round" stroke-linejoin="round" filter="url(#glow)"/>
<path d="M 387.48,329.52 C 439.05,335.51 542.19,353.17 593.76,364.84 C 542.19,353.17 645.33,368.66 696.90,372.48 C 645.33,368.66 748.46,359.46 800.03,346.44 C 748.46,359.46 851.60,320.79 903.17,295.14 C 851.60,320.79 954.74,272.57 1006.31,250.00 C 954.74,272.57 1057.88,246.59 1109.45,243.18 C 1057.88,246.59 1161.02,263.23 1212.58,283.28 C 1161.02,263.23 1264.15,315.48 1315.72,347.69 C 1264.15,315.48 1367.29,372.83 1418.86,397.97 C 1367.29,372.83 1470.43,402.34 1522.00,406.71 C 1470.43,402.34 1573.57,391.26 1625.14,375.81 C 1573.57,391.26 1676.70,354.21 1728.27,332.61 C 1676.70,354.21 1779.84,320.14 1831.41,307.67 C 1779.84,320.14 1882.98,309.68 1934.55,311.69 C 1882.98,309.68 1986.12,320.61 2037.69,329.52 " fill="none" stroke="#2aa7ff" stroke-opacity="0.650" stroke-width="1.16" stroke-linecap="round" stroke-linejoin="round"/>
<path d="M 387.48,329.52 C 439.05,335.51 542.19,353.17 593.76,364.84 C 542.19,353.17 645.33,368.66 696.90,372.48 C 645.33,368.66 748.46,359.46 800.03,346.44 C 748.46,359.46 851.60,320.79 903.17,295.14 C 851.60,320.79 954.74,272.57 1006.31,250.00 C 954.74,272.57 1057.88,246.59 1109.45,243.18 C 1057.88,246.59 1161.02,263.23 1212.58,283.28 C 1161.02,263.23 1264.15,315.48 1315.72,347.69 C 1264.15,315.48 1367.29,372.83 1418.86,397.97 C 1367.29,372.83 1470.43,402.34 1522.00,406.71 C 1470.43,402.34 1573.57,391.26 1625.14,375.81 C 1573.57,391.26 1676.70,354.21 1728.27,332.61 C 1676.70,354.21 1779.84,320.14 1831.41,307.67 C 1779.84,320.14 1882.98,309.68 1934.55,311.69 C 1882.98,309.68 1986.12,320.61 2037.69,329.52 " fill="none" stroke="#bfefff" stroke-opacity="0.600" stroke-width="0.60" stroke-linecap="round" stroke-linejoin="round" opacity="0.7"/>
<circle cx="385.85" cy="328.92" r="2.18" fill="#6fe6ff" fill-opacity="0.9"/>
<circle cx="595.19" cy="364.16" r="2.54" fill="#6fe6ff" fill-opacity="0.9"/>
<circle cx="801.81" cy="347.70" r="1.78" fill="#6fe6ff" fill-opacity="0.9"/>
<circle cx="1005.57" cy="249.29" r="2.11" fill="#6fe6ff" fill-opacity="0.9"/>
<circle cx="1212.64" cy="285.23" r="2.01" fill="#6fe6ff" fill-opacity="0.9"/>
<circle cx="1418.51" cy="396.72" r="2.29" fill="#6fe6ff" fill-opacity="0.9"/>
<circle cx="1625.64" cy="376.85" r="2.71" fill="#6fe6ff" fill-opacity="0.9"/>
<circle cx="1833.12" cy="307.42" r="2.30" fill="#6fe6ff" fill-opacity="0.9"/>
<circle cx="2039.58" cy="329.96" r="1.44" fill="#6fe6ff" fill-opacity="0.9"/>
<path d="M -209.04,572.94 C -132.58,578.45 20.35,564.82 96.81,545.67 C 20.35,564.82 173.27,569.11 249.73,592.55 C 173.27,569.11 326.20,590.48 402.66,588.41 C 326.20,590.48 479.12,556.99 555.58,525.56 C 479.12,556.99 632.04,571.39 708.50,617.21 C 632.04,571.39 784.97,590.62 861.43,564.03 C 784.97,590.62 937.89,556.36 1014.35,548.70 C 937.89,556.36 1090.81,574.65 1167.28,600.61 C 1090.81,574.65 1243.74,582.00 1320.20,563.39 C 1243.74,582.00 1396.66,568.17 1473.12,572.94 " fill="none" stroke="#4fe0d8" stroke-opacity="0.262" stroke-width="8.03" stroke-linecap="round" stroke-linejoin="round" filter="url(#glow)"/>
<path d="M -209.04,572.94 C -132.58,578.45 20.35,564.82 96.81,545.67 C 20.35,564.82 173.27,569.11 249.73,592.55 C 173.27,569.11 326.20,590.48 402.66,588.41 C 326.20,590.48 479.12,556.99 555.58,525.56 C 479.12,556.99 632.04,571.39 708.50,617.21 C 632.04,571.39 784.97,590.62 861.43,564.03 C 784.97,590.62 937.89,556.36 1014.35,548.70 C 937.89,556.36 1090.81,574.65 1167.28,600.61 C 1090.81,574.65 1243.74,582.00 1320.20,563.39 C 1243.74,582.00 1396.66,568.17 1473.12,572.94 " fill="none" stroke="#4fe0d8" stroke-opacity="0.750" stroke-width="1.34" stroke-linecap="round" stroke-linejoin="round"/>
<path d="M -209.04,572.94 C -132.58,578.45 20.35,564.82 96.81,545.67 C 20.35,564.82 173.27,569.11 249.73,592.55 C 173.27,569.11 326.20,590.48 402.66,588.41 C 326.20,590.48 479.12,556.99 555.58,525.56 C 479.12,556.99 632.04,571.39 708.50,617.21 C 632.04,571.39 784.97,590.62 861.43,564.03 C 784.97,590.62 937.89,556.36 1014.35,548.70 C 937.89,556.36 1090.81,574.65 1167.28,600.61 C 1090.81,574.65 1243.74,582.00 1320.20,563.39 C 1243.74,582.00 1396.66,568.17 1473.12,572.94 " fill="none" stroke="#bfefff" stroke-opacity="0.600" stroke-width="0.60" stroke-linecap="round" stroke-linejoin="round" opacity="0.7"/>
<circle cx="-207.71" cy="572.94" r="1.43" fill="#6fe6ff" fill-opacity="0.9"/>
<circle cx="95.90" cy="547.01" r="2.22" fill="#6fe6ff" fill-opacity="0.9"/>
<circle cx="402.86" cy="587.95" r="1.69" fill="#6fe6ff" fill-opacity="0.9"/>
<circle cx="710.02" cy="618.67" r="2.22" fill="#6fe6ff" fill-opacity="0.9"/>
<circle cx="1014.01" cy="550.44" r="2.78" fill="#6fe6ff" fill-opacity="0.9"/>
<circle cx="1319.33" cy="562.58" r="2.84" fill="#6fe6ff" fill-opacity="0.9"/>
<path d="M 791.62,533.29 C 827.58,539.21 899.51,556.90 935.47,568.67 C 899.51,556.90 971.43,573.13 1007.40,577.59 C 971.43,573.13 1043.36,565.37 1079.32,553.14 C 1043.36,565.37 1115.28,527.21 1151.25,501.28 C 1115.28,527.21 1187.21,476.48 1223.17,451.68 C 1187.21,476.48 1259.13,444.99 1295.10,438.30 C 1259.13,444.99 1331.06,456.73 1367.02,475.16 C 1331.06,456.73 1402.98,510.03 1438.95,544.89 C 1402.98,510.03 1474.91,576.81 1510.87,608.74 C 1474.91,576.81 1546.83,620.13 1582.80,631.53 C 1546.83,620.13 1618.76,617.87 1654.72,604.21 C 1618.76,617.87 1690.68,576.26 1726.65,548.31 C 1690.68,576.26 1762.61,524.03 1798.57,499.76 C 1762.61,524.03 1834.53,491.85 1870.50,483.94 C 1834.53,491.85 1906.46,491.94 1942.42,499.95 C 1906.46,491.94 1978.38,512.36 2014.35,524.76 C 1978.38,512.36 2050.31,529.03 2086.27,533.29 " fill="none" stroke="#2aa7ff" stroke-opacity="0.227" stroke-width="7.89" stroke-linecap="round" stroke-linejoin="round" filter="url(#glow)"/>
<path d="M 791.62,533.29 C 827.58,539.21 899.51,556.90 935.47,568.67 C 899.51,556.90 971.43,573.13 1007.40,577.59 C 971.43,573.13 1043.36,565.37 1079.32,553.14 C 1043.36,565.37 1115.28,527.21 1151.25,501.28 C 1115.28,527.21 1187.21,476.48 1223.17,451.68 C 1187.21,476.48 1259.13,444.99 1295.10,438.30 C 1259.13,444.99 1331.06,456.73 1367.02,475.16 C 1331.06,456.73 1402.98,510.03 1438.95,544.89 C 1402.98,510.03 1474.91,576.81 1510.87,608.74 C 1474.91,576.81 1546.83,620.13 1582.80,631.53 C 1546.83,620.13 1618.76,617.87 1654.72,604.21 C 1618.76,617.87 1690.68,576.26 1726.65,548.31 C 1690.68,576.26 1762.61,524.03 1798.57,499.76 C 1762.61,524.03 1834.53,491.85 1870.50,483.94 C 1834.53,491.85 1906.46,491.94 1942.42,499.95 C 1906.46,491.94 1978.38,512.36 2014.35,524.76 C 1978.38,512.36 2050.31,529.03 2086.27,533.29 " fill="none" stroke="#2aa7ff" stroke-opacity="0.650" stroke-width="1.32" stroke-linecap="round" stroke-linejoin="round"/>
<path d="M 791.62,533.29 C 827.58,539.21 899.51,556.90 935.47,568.67 C 899.51,556.90 971.43,573.13 1007.40,577.59 C 971.43,573.13 1043.36,565.37 1079.32,553.14 C 1043.36,565.37 1115.28,527.21 1151.25,501.28 C 1115.28,527.21 1187.21,476.48 1223.17,451.68 C 1187.21,476.48 1259.13,444.99 1295.10,438.30 C 1259.13,444.99 1331.06,456.73 1367.02,475.16 C 1331.06,456.73 1402.98,510.03 1438.95,544.89 C 1402.98,510.03 1474.91,576.81 1510.87,608.74 C 1474.91,576.81 1546.83,620.13 1582.80,631.53 C 1546.83,620.13 1618.76,617.87 1654.72,604.21 C 1618.76,617.87 1690.68,576.26 1726.65,548.31 C 1690.68,576.26 1762.61,524.03 1798.57,499.76 C 1762.61,524.03 1834.53,491.85 1870.50,483.94 C 1834.53,491.85 1906.46,491.94 1942.42,499.95 C 1906.46,491.94 1978.38,512.36 2014.35,524.76 C 1978.38,512.36 2050.31,529.03 2086.27,533.29 " fill="none" stroke="#bfefff" stroke-opacity="0.600" stroke-width="0.60" stroke-linecap="round" stroke-linejoin="round" opacity="0.7"/>
<circle cx="793.35" cy="534.77" r="1.95" fill="#6fe6ff" fill-opacity="0.9"/>
<circle cx="935.00" cy="570.10" r="1.68" fill="#6fe6ff" fill-opacity="0.9"/>
<circle cx="1079.21" cy="554.80" r="1.84" fill="#6fe6ff" fill-opacity="0.9"/>
<circle cx="1224.34" cy="452.28" r="3.18" fill="#6fe6ff" fill-opacity="0.9"/>
<circle cx="1365.53" cy="477.02" r="3.13" fill="#6fe6ff" fill-opacity="0.9"/>
<circle cx="1512.25" cy="607.14" r="1.40" fill="#6fe6ff" fill-opacity="0.9"/>
<circle cx="1653.30" cy="605.69" r="1.23" fill="#6fe6ff" fill-opacity="0.9"/>
<circle cx="1799.70" cy="498.82" r="1.35" fill="#6fe6ff" fill-opacity="0.9"/>
<circle cx="1940.74" cy="499.26" r="1.99" fill="#6fe6ff" fill-opacity="0.9"/>
<circle cx="2088.09" cy="533.79" r="2.27" fill="#6fe6ff" fill-opacity="0.9"/>
<path d="M 76.05,566.58 C 138.36,574.01 262.99,579.78 325.30,578.13 C 262.99,579.78 387.61,554.83 449.93,531.54 C 387.61,554.83 512.24,529.90 574.55,528.27 C 512.24,529.90 636.87,563.95 699.18,599.63 C 636.87,563.95 761.49,614.11 823.80,628.60 C 761.49,614.11 886.12,591.92 948.43,555.24 C 886.12,591.92 1010.74,527.70 1073.06,500.15 C 1010.74,527.70 1135.37,526.25 1197.68,552.34 C 1135.37,526.25 1259.99,583.63 1322.31,614.93 C 1259.99,583.63 1384.62,603.36 1446.93,591.79 C 1384.62,603.36 1509.25,569.26 1571.56,546.74 C 1509.25,569.26 1633.87,550.13 1696.18,553.53 C 1633.87,550.13 1758.50,560.05 1820.81,566.58 " fill="none" stroke="#2aa7ff" stroke-opacity="0.227" stroke-width="9.58" stroke-linecap="round" stroke-linejoin="round" filter="url(#glow)"/>
<path d="M 76.05,566.58 C 138.36,574.01 262.99,579.78 325.30,578.13 C 262.99,579.78 387.61,554.83 449.93,531.54 C 387.61,554.83 512.24,529.90 574.55,528.27 C 512.24,529.90 636.87,563.95 699.18,599.63 C 636.87,563.95 761.49,614.11 823.80,628.60 C 761.49,614.11 886.12,591.92 948.43,555.24 C 886.12,591.92 1010.74,527.70 1073.06,500.15 C 1010.74,527.70 1135.37,526.25 1197.68,552.34 C 1135.37,526.25 1259.99,583.63 1322.31,614.93 C 1259.99,583.63 1384.62,603.36 1446.93,591.79 C 1384.62,603.36 1509.25,569.26 1571.56,546.74 C 1509.25,569.26 1633.87,550.13 1696.18,553.53 C 1633.87,550.13 1758.50,560.05 1820.81,566.58 " fill="none" stroke="#2aa7ff" stroke-opacity="0.650" stroke-width="1.60" stroke-linecap="round" stroke-linejoin="round"/>
<path d="M 76.05,566.58 C 138.36,574.01 262.99,579.78 325.30,578.13 C 262.99,579.78 387.61,554.83 449.93,531.54 C 387.61,554.83 512.24,529.90 574.55,528.27 C 512.24,529.90 636.87,563.95 699.18,599.63 C 636.87,563.95 761.49,614.11 823.80,628.60 C 761.49,614.11 886.12,591.92 948.43,555.24 C 886.12,591.92 1010.74,527.70 1073.06,500.15 C 1010.74,527.70 1135.37,526.25 1197.68,552.34 C 1135.37,526.25 1259.99,583.63 1322.31,614.93 C 1259.99,583.63 1384.62,603.36 1446.93,591.79 C 1384.62,603.36 1509.25,569.26 1571.56,546.74 C 1509.25,569.26 1633.87,550.13 1696.18,553.53 C 1633.87,550.13 1758.50,560.05 1820.81,566.58 " fill="none" stroke="#bfefff" stroke-opacity="0.600" stroke-width="0.60" stroke-linecap="round" stroke-linejoin="round" opacity="0.7"/>
<circle cx="75.78" cy="564.97" r="2.69" fill="#6fe6ff" fill-opacity="0.9"/>
<circle cx="325.08" cy="578.90" r="2.95" fill="#6fe6ff" fill-opacity="0.9"/>
<circle cx="575.74" cy="527.44" r="1.29" fill="#6fe6ff" fill-opacity="0.9"/>
<circle cx="823.93" cy="628.86" r="1.49" fill="#6fe6ff" fill-opacity="0.9"/>
<circle cx="1071.37" cy="501.64" r="1.54" fill="#6fe6ff" fill-opacity="0.9"/>
<circle cx="1323.96" cy="613.50" r="1.68" fill="#6fe6ff" fill-opacity="0.9"/>
<circle cx="1570.58" cy="544.77" r="1.71" fill="#6fe6ff" fill-opacity="0.9"/>
<circle cx="1821.52" cy="565.21" r="3.00" fill="#6fe6ff" fill-opacity="0.9"/>
<circle cx="663.49" cy="634.58" r="0.74" fill="#4fe0d8" fill-opacity="0.55"/>
<circle cx="480.19" cy="912.93" r="0.71" fill="#4fe0d8" fill-opacity="0.55"/>
<circle cx="927.76" cy="256.18" r="0.86" fill="#4fe0d8" fill-opacity="0.55"/>
<circle cx="1905.97" cy="318.85" r="0.93" fill="#4fe0d8" fill-opacity="0.55"/>
<circle cx="527.00" cy="611.20" r="1.00" fill="#4fe0d8" fill-opacity="0.55"/>
<circle cx="94.16" cy="654.92" r="1.12" fill="#4fe0d8" fill-opacity="0.55"/>
<circle cx="549.49" cy="862.77" r="0.68" fill="#4fe0d8" fill-opacity="0.55"/>
<circle cx="1222.31" cy="670.56" r="0.98" fill="#4fe0d8" fill-opacity="0.55"/>
<circle cx="1265.63" cy="905.40" r="1.12" fill="#4fe0d8" fill-opacity="0.55"/>
<circle cx="1240.97" cy="333.65" r="0.86" fill="#4fe0d8" fill-opacity="0.55"/>
<circle cx="1406.13" cy="97.34" r="1.00" fill="#4fe0d8" fill-opacity="0.55"/>
<circle cx="337.23" cy="142.73" r="1.18" fill="#4fe0d8" fill-opacity="0.55"/>
<circle cx="1019.24" cy="986.57" r="0.61" fill="#4fe0d8" fill-opacity="0.55"/>
<circle cx="1583.40" cy="520.40" r="1.00" fill="#4fe0d8" fill-opacity="0.55"/>
<circle cx="650.33" cy="124.38" r="0.51" fill="#4fe0d8" fill-opacity="0.55"/>
<circle cx="1855.68" cy="928.95" r="1.18" fill="#4fe0d8" fill-opacity="0.55"/>
<circle cx="1857.16" cy="868.95" r="1.03" fill="#4fe0d8" fill-opacity="0.55"/>
<circle cx="26.72" cy="579.50" r="0.94" fill="#4fe0d8" fill-opacity="0.55"/>
<circle cx="1290.89" cy="631.32" r="1.15" fill="#4fe0d8" fill-opacity="0.55"/>
<circle cx="208.02" cy="252.53" r="1.48" fill="#ff8a50" fill-opacity="0.55"/>
<circle cx="1077.90" cy="988.48" r="0.45" fill="#4fe0d8" fill-opacity="0.55"/>
<circle cx="1581.80" cy="982.14" r="0.73" fill="#4fe0d8" fill-opacity="0.55"/>
<circle cx="268.37" cy="1021.96" r="0.79" fill="#4fe0d8" fill-opacity="0.55"/>
<circle cx="186.61" cy="958.24" r="0.76" fill="#4fe0d8" fill-opacity="0.55"/>
<circle cx="1287.33" cy="802.59" r="0.74" fill="#4fe0d8" fill-opacity="0.55"/>
<circle cx="1425.16" cy="166.88" r="0.48" fill="#4fe0d8" fill-opacity="0.55"/>
<circle cx="939.55" cy="440.77" r="0.43" fill="#4fe0d8" fill-opacity="0.55"/>
<circle cx="711.42" cy="478.85" r="1.08" fill="#4fe0d8" fill-opacity="0.55"/>
<circle cx="190.76" cy="740.53" r="1.18" fill="#4fe0d8" fill-opacity="0.55"/>
<circle cx="688.65" cy="429.99" r="0.50" fill="#4fe0d8" fill-opacity="0.55"/>
<circle cx="1628.22" cy="491.09" r="0.91" fill="#4fe0d8" fill-opacity="0.55"/>
<circle cx="1146.52" cy="23.07" r="0.59" fill="#4fe0d8" fill-opacity="0.55"/>
<circle cx="241.77" cy="609.74" r="1.01" fill="#4fe0d8" fill-opacity="0.55"/>
<circle cx="397.74" cy="233.23" r="0.66" fill="#4fe0d8" fill-opacity="0.55"/>
<circle cx="283.30" cy="972.57" r="1.46" fill="#ff8a50" fill-opacity="0.55"/>
<circle cx="277.80" cy="140.39" r="0.54" fill="#4fe0d8" fill-opacity="0.55"/>
<circle cx="1269.23" cy="27.84" r="1.39" fill="#ff8a50" fill-opacity="0.55"/>
<circle cx="456.83" cy="349.67" r="0.44" fill="#4fe0d8" fill-opacity="0.55"/>
<circle cx="1424.10" cy="568.17" r="0.78" fill="#4fe0d8" fill-opacity="0.55"/>
<circle cx="1493.79" cy="554.30" r="0.80" fill="#4fe0d8" fill-opacity="0.55"/>
<circle cx="1815.20" cy="46.83" r="1.09" fill="#4fe0d8" fill-opacity="0.55"/>
<circle cx="1001.19" cy="494.69" r="0.45" fill="#4fe0d8" fill-opacity="0.55"/>
<circle cx="919.65" cy="433.75" r="0.79" fill="#4fe0d8" fill-opacity="0.55"/>
<circle cx="1746.63" cy="79.37" r="0.89" fill="#4fe0d8" fill-opacity="0.55"/>
<circle cx="126.11" cy="297.02" r="0.84" fill="#4fe0d8" fill-opacity="0.55"/>
<circle cx="624.36" cy="1074.20" r="0.76" fill="#4fe0d8" fill-opacity="0.55"/>
<circle cx="1162.42" cy="107.11" r="1.08" fill="#4fe0d8" fill-opacity="0.55"/>
<circle cx="1249.76" cy="830.48" r="0.57" fill="#4fe0d8" fill-opacity="0.55"/>
<circle cx="866.99" cy="246.77" r="0.76" fill="#4fe0d8" fill-opacity="0.55"/>
<circle cx="798.70" cy="102.69" r="0.93" fill="#4fe0d8" fill-opacity="0.55"/>
<circle cx="718.66" cy="164.85" r="0.45" fill="#4fe0d8" fill-opacity="0.55"/>
<circle cx="1597.00" cy="100.69" r="0.99" fill="#4fe0d8" fill-opacity="0.55"/>
<circle cx="1558.60" cy="600.88" r="0.85" fill="#4fe0d8" fill-opacity="0.55"/>
<circle cx="632.92" cy="132.01" r="0.93" fill="#4fe0d8" fill-opacity="0.55"/>
<circle cx="1440.55" cy="937.54" r="1.17" fill="#4fe0d8" fill-opacity="0.55"/>
<circle cx="1152.79" cy="379.78" r="0.57" fill="#4fe0d8" fill-opacity="0.55"/>
<circle cx="1260.93" cy="242.18" r="1.08" fill="#4fe0d8" fill-opacity="0.55"/>
<circle cx="705.72" cy="823.61" r="1.05" fill="#4fe0d8" fill-opacity="0.55"/>
<circle cx="1622.70" cy="1052.51" r="0.89" fill="#4fe0d8" fill-opacity="0.55"/>
<circle cx="1233.98" cy="28.35" r="1.06" fill="#4fe0d8" fill-opacity="0.55"/>
<circle cx="513.50" cy="194.85" r="0.65" fill="#4fe0d8" fill-opacity="0.55"/>
<circle cx="652.46" cy="6.59" r="0.85" fill="#4fe0d8" fill-opacity="0.55"/>
<circle cx="769.51" cy="153.22" r="0.42" fill="#4fe0d8" fill-opacity="0.55"/>
<circle cx="1432.53" cy="232.34" r="0.67" fill="#4fe0d8" fill-opacity="0.55"/>
<circle cx="710.50" cy="779.32" r="0.85" fill="#4fe0d8" fill-opacity="0.55"/>
<circle cx="163.12" cy="56.82" r="0.89" fill="#4fe0d8" fill-opacity="0.55"/>
<circle cx="1294.02" cy="293.87" r="0.79" fill="#4fe0d8" fill-opacity="0.55"/>
<circle cx="848.72" cy="295.02" r="0.49" fill="#4fe0d8" fill-opacity="0.55"/>
<circle cx="825.43" cy="305.91" r="0.79" fill="#4fe0d8" fill-opacity="0.55"/>
<circle cx="1280.89" cy="49.05" r="0.88" fill="#4fe0d8" fill-opacity="0.55"/>
<circle cx="14.76" cy="325.53" r="0.51" fill="#4fe0d8" fill-opacity="0.55"/>
<circle cx="490.60" cy="354.37" r="1.35" fill="#ff8a50" fill-opacity="0.55"/>
<circle cx="337.33" cy="410.62" r="0.80" fill="#4fe0d8" fill-opacity="0.55"/>
<circle cx="1600.04" cy="870.70" r="1.09" fill="#4fe0d8" fill-opacity="0.55"/>
<circle cx="81.22" cy="20.24" r="1.09" fill="#4fe0d8" fill-opacity="0.55"/>
<circle cx="1105.46" cy="619.27" r="0.73" fill="#4fe0d8" fill-opacity="0.55"/>
<circle cx="221.13" cy="22.53" r="1.04" fill="#4fe0d8" fill-opacity="0.55"/>
<circle cx="1186.80" cy="898.59" r="0.47" fill="#4fe0d8" fill-opacity="0.55"/>
<circle cx="1621.41" cy="262.78" r="0.82" fill="#4fe0d8" fill-opacity="0.55"/>
<circle cx="759.87" cy="335.10" r="0.67" fill="#4fe0d8" fill-opacity="0.55"/>
<circle cx="322.81" cy="551.32" r="0.81" fill="#4fe0d8" fill-opacity="0.55"/>
<circle cx="1739.37" cy="377.33" r="1.06" fill="#4fe0d8" fill-opacity="0.55"/>
<circle cx="1564.87" cy="255.17" r="0.56" fill="#4fe0d8" fill-opacity="0.55"/>
<circle cx="1156.61" cy="821.03" r="0.54" fill="#4fe0d8" fill-opacity="0.55"/>
<circle cx="1483.87" cy="533.65" r="1.01" fill="#4fe0d8" fill-opacity="0.55"/>
<circle cx="861.90" cy="998.09" r="0.91" fill="#4fe0d8" fill-opacity="0.55"/>
<circle cx="1199.08" cy="933.39" r="0.52" fill="#4fe0d8" fill-opacity="0.55"/>
<circle cx="131.11" cy="477.58" r="0.62" fill="#4fe0d8" fill-opacity="0.55"/>
<circle cx="107.85" cy="547.92" r="0.76" fill="#4fe0d8" fill-opacity="0.55"/>
<circle cx="109.23" cy="898.23" r="1.09" fill="#4fe0d8" fill-opacity="0.55"/>
<circle cx="1642.16" cy="664.21" r="0.77" fill="#4fe0d8" fill-opacity="0.55"/>
<circle cx="1064.29" cy="855.16" r="0.76" fill="#4fe0d8" fill-opacity="0.55"/>
<circle cx="1554.85" cy="703.98" r="0.78" fill="#4fe0d8" fill-opacity="0.55"/>
<circle cx="289.65" cy="66.82" r="1.12" fill="#4fe0d8" fill-opacity="0.55"/>
<circle cx="659.40" cy="771.46" r="0.54" fill="#4fe0d8" fill-opacity="0.55"/>
<circle cx="475.67" cy="472.78" r="0.82" fill="#4fe0d8" fill-opacity="0.55"/>
<circle cx="304.79" cy="402.68" r="0.73" fill="#4fe0d8" fill-opacity="0.55"/>
<circle cx="649.66" cy="645.72" r="0.92" fill="#4fe0d8" fill-opacity="0.55"/>
<circle cx="126.55" cy="102.07" r="0.63" fill="#4fe0d8" fill-opacity="0.55"/>
<circle cx="1389.57" cy="709.09" r="1.10" fill="#4fe0d8" fill-opacity="0.55"/>
<circle cx="640.06" cy="629.36" r="0.68" fill="#4fe0d8" fill-opacity="0.55"/>
<circle cx="1857.98" cy="754.36" r="0.88" fill="#4fe0d8" fill-opacity="0.55"/>
<circle cx="1800.96" cy="334.35" r="1.03" fill="#4fe0d8" fill-opacity="0.55"/>
<circle cx="1561.31" cy="723.73" r="0.99" fill="#4fe0d8" fill-opacity="0.55"/>
<circle cx="1316.00" cy="568.50" r="0.74" fill="#4fe0d8" fill-opacity="0.55"/>
<circle cx="694.71" cy="391.61" r="0.57" fill="#4fe0d8" fill-opacity="0.55"/>
<circle cx="1819.52" cy="525.17" r="0.51" fill="#4fe0d8" fill-opacity="0.55"/>
<circle cx="148.16" cy="911.98" r="1.02" fill="#4fe0d8" fill-opacity="0.55"/>
<circle cx="1603.43" cy="954.38" r="0.94" fill="#ff8a50" fill-opacity="0.55"/>
<circle cx="1471.31" cy="141.53" r="0.53" fill="#4fe0d8" fill-opacity="0.55"/>
<circle cx="1596.18" cy="832.79" r="0.53" fill="#4fe0d8" fill-opacity="0.55"/>
<circle cx="840.33" cy="443.73" r="0.59" fill="#4fe0d8" fill-opacity="0.55"/>
<circle cx="852.86" cy="307.72" r="0.76" fill="#4fe0d8" fill-opacity="0.55"/>
<circle cx="1025.30" cy="334.23" r="0.78" fill="#4fe0d8" fill-opacity="0.55"/>
<circle cx="1603.42" cy="397.27" r="1.19" fill="#4fe0d8" fill-opacity="0.55"/>
<circle cx="886.43" cy="304.31" r="0.82" fill="#4fe0d8" fill-opacity="0.55"/>
<circle cx="1855.23" cy="882.24" r="0.51" fill="#4fe0d8" fill-opacity="0.55"/>
<circle cx="480.01" cy="692.47" r="0.84" fill="#4fe0d8" fill-opacity="0.55"/>
<circle cx="196.97" cy="913.56" r="0.63" fill="#4fe0d8" fill-opacity="0.55"/>
<circle cx="1465.18" cy="294.61" r="0.52" fill="#4fe0d8" fill-opacity="0.55"/>
<circle cx="839.95" cy="1022.13" r="0.76" fill="#4fe0d8" fill-opacity="0.55"/>
<circle cx="671.20" cy="28.80" r="1.10" fill="#ff8a50" fill-opacity="0.55"/>
<circle cx="452.69" cy="1074.09" r="0.42" fill="#4fe0d8" fill-opacity="0.55"/>
<circle cx="1787.19" cy="906.31" r="1.03" fill="#4fe0d8" fill-opacity="0.55"/>
<circle cx="264.19" cy="309.83" r="0.96" fill="#4fe0d8" fill-opacity="0.55"/>
<circle cx="266.48" cy="761.98" r="0.40" fill="#4fe0d8" fill-opacity="0.55"/>
<circle cx="152.11" cy="276.40" r="0.84" fill="#4fe0d8" fill-opacity="0.55"/>
<circle cx="1396.29" cy="569.99" r="0.63" fill="#4fe0d8" fill-opacity="0.55"/>
<circle cx="578.21" cy="51.57" r="1.04" fill="#4fe0d8" fill-opacity="0.55"/>
<circle cx="877.66" cy="119.73" r="0.88" fill="#4fe0d8" fill-opacity="0.55"/>
<circle cx="31.56" cy="556.61" r="0.51" fill="#4fe0d8" fill-opacity="0.55"/>
<circle cx="824.14" cy="663.99" r="0.73" fill="#4fe0d8" fill-opacity="0.55"/>
<circle cx="1275.59" cy="92.46" r="0.45" fill="#4fe0d8" fill-opacity="0.55"/>
<circle cx="1010.03" cy="547.91" r="0.84" fill="#4fe0d8" fill-opacity="0.55"/>
<circle cx="749.67" cy="507.75" r="1.18" fill="#4fe0d8" fill-opacity="0.55"/>
<circle cx="487.01" cy="17.54" r="0.68" fill="#4fe0d8" fill-opacity="0.55"/>
<circle cx="1407.25" cy="678.52" r="0.99" fill="#4fe0d8" fill-opacity="0.55"/>
<circle cx="638.44" cy="47.88" r="1.05" fill="#4fe0d8" fill-opacity="0.55"/>
<circle cx="336.17" cy="841.47" r="0.96" fill="#4fe0d8" fill-opacity="0.55"/>
<circle cx="1212.93" cy="876.42" r="1.02" fill="#4fe0d8" fill-opacity="0.55"/>
<circle cx="878.74" cy="316.92" r="0.80" fill="#ff8a50" fill-opacity="0.55"/>
<circle cx="80.46" cy="1008.04" r="1.19" fill="#4fe0d8" fill-opacity="0.55"/>
<circle cx="1042.62" cy="273.58" r="0.55" fill="#4fe0d8" fill-opacity="0.55"/>
<circle cx="685.39" cy="843.31" r="0.67" fill="#4fe0d8" fill-opacity="0.55"/>
<circle cx="238.99" cy="397.46" r="0.99" fill="#4fe0d8" fill-opacity="0.55"/>
<circle cx="1717.70" cy="417.58" r="0.80" fill="#4fe0d8" fill-opacity="0.55"/>
<circle cx="955.24" cy="998.26" r="1.04" fill="#4fe0d8" fill-opacity="0.55"/>
<circle cx="1396.00" cy="85.24" r="1.06" fill="#4fe0d8" fill-opacity="0.55"/>
<circle cx="1047.31" cy="346.91" r="0.93" fill="#4fe0d8" fill-opacity="0.55"/>
<circle cx="588.47" cy="650.83" r="0.95" fill="#4fe0d8" fill-opacity="0.55"/>
<circle cx="674.97" cy="45.74" r="0.68" fill="#4fe0d8" fill-opacity="0.55"/>
<circle cx="1916.45" cy="296.52" r="1.16" fill="#4fe0d8" fill-opacity="0.55"/>
<circle cx="144.08" cy="688.51" r="1.04" fill="#4fe0d8" fill-opacity="0.55"/>
<circle cx="1304.47" cy="1029.01" r="0.89" fill="#4fe0d8" fill-opacity="0.55"/>
<circle cx="1500.12" cy="37.58" r="1.02" fill="#4fe0d8" fill-opacity="0.55"/>
<circle cx="703.35" cy="413.48" r="0.88" fill="#4fe0d8" fill-opacity="0.55"/>
<circle cx="1303.80" cy="1024.73" r="1.01" fill="#4fe0d8" fill-opacity="0.55"/>
<circle cx="1101.93" cy="571.82" r="0.92" fill="#4fe0d8" fill-opacity="0.55"/>
<circle cx="479.25" cy="122.52" r="0.80" fill="#4fe0d8" fill-opacity="0.55"/>
<circle cx="743.02" cy="606.61" r="0.61" fill="#4fe0d8" fill-opacity="0.55"/>
<circle cx="856.84" cy="1076.07" r="1.13" fill="#4fe0d8" fill-opacity="0.55"/>
<circle cx="943.10" cy="132.45" r="0.76" fill="#4fe0d8" fill-opacity="0.55"/>
<circle cx="1725.46" cy="480.72" r="0.95" fill="#4fe0d8" fill-opacity="0.55"/>
<circle cx="1623.40" cy="345.15" r="0.45" fill="#4fe0d8" fill-opacity="0.55"/>
<circle cx="1040.97" cy="962.64" r="0.97" fill="#4fe0d8" fill-opacity="0.55"/>
<circle cx="1780.46" cy="688.72" r="0.81" fill="#4fe0d8" fill-opacity="0.55"/>
<circle cx="233.02" cy="217.06" r="1.03" fill="#4fe0d8" fill-opacity="0.55"/>
<circle cx="50.47" cy="598.34" r="1.04" fill="#4fe0d8" fill-opacity="0.55"/>
<circle cx="1059.16" cy="660.90" r="0.65" fill="#4fe0d8" fill-opacity="0.55"/>
<circle cx="1919.22" cy="776.38" r="1.02" fill="#4fe0d8" fill-opacity="0.55"/>
<circle cx="1580.81" cy="79.65" r="0.91" fill="#4fe0d8" fill-opacity="0.55"/>
<circle cx="863.95" cy="734.52" r="1.10" fill="#4fe0d8" fill-opacity="0.55"/>
<circle cx="1498.10" cy="690.98" r="1.17" fill="#4fe0d8" fill-opacity="0.55"/>
<circle cx="830.63" cy="983.57" r="0.72" fill="#ff8a50" fill-opacity="0.55"/>
<circle cx="293.79" cy="177.83" r="0.97" fill="#4fe0d8" fill-opacity="0.55"/>
<circle cx="664.36" cy="1016.18" r="1.08" fill="#4fe0d8" fill-opacity="0.55"/>
<circle cx="481.16" cy="685.86" r="0.50" fill="#4fe0d8" fill-opacity="0.55"/>
<circle cx="581.42" cy="576.16" r="0.53" fill="#4fe0d8" fill-opacity="0.55"/>
<circle cx="1807.89" cy="166.53" r="0.98" fill="#4fe0d8" fill-opacity="0.55"/>
<circle cx="1161.87" cy="909.93" r="1.06" fill="#4fe0d8" fill-opacity="0.55"/>
<circle cx="54.48" cy="49.10" r="0.86" fill="#4fe0d8" fill-opacity="0.55"/>
<circle cx="1250.17" cy="828.32" r="0.91" fill="#4fe0d8" fill-opacity="0.55"/>
<circle cx="956.23" cy="677.34" r="1.17" fill="#4fe0d8" fill-opacity="0.55"/>
<circle cx="927.25" cy="869.06" r="0.64" fill="#4fe0d8" fill-opacity="0.55"/>
<circle cx="140.11" cy="64.71" r="0.79" fill="#4fe0d8" fill-opacity="0.55"/>
<circle cx="391.72" cy="655.19" r="0.97" fill="#4fe0d8" fill-opacity="0.55"/>
<circle cx="1409.66" cy="929.64" r="0.50" fill="#4fe0d8" fill-opacity="0.55"/>
<circle cx="711.44" cy="606.58" r="0.77" fill="#4fe0d8" fill-opacity="0.55"/>
<circle cx="513.55" cy="267.75" r="0.63" fill="#4fe0d8" fill-opacity="0.55"/>
<circle cx="737.57" cy="664.61" r="1.09" fill="#4fe0d8" fill-opacity="0.55"/>
<circle cx="306.62" cy="353.63" r="0.65" fill="#4fe0d8" fill-opacity="0.55"/>
<circle cx="1465.19" cy="538.13" r="0.80" fill="#4fe0d8" fill-opacity="0.55"/>
<circle cx="592.40" cy="25.03" r="0.80" fill="#4fe0d8" fill-opacity="0.55"/>
<circle cx="1856.04" cy="232.36" r="0.44" fill="#4fe0d8" fill-opacity="0.55"/>
<circle cx="950.20" cy="952.93" r="0.78" fill="#4fe0d8" fill-opacity="0.55"/>
<circle cx="1030.45" cy="914.95" r="1.11" fill="#4fe0d8" fill-opacity="0.55"/>
<circle cx="1396.82" cy="824.97" r="0.72" fill="#4fe0d8" fill-opacity="0.55"/>
<circle cx="1094.94" cy="210.23" r="0.46" fill="#4fe0d8" fill-opacity="0.55"/>
<circle cx="968.17" cy="825.56" r="1.19" fill="#4fe0d8" fill-opacity="0.55"/>
<circle cx="1306.37" cy="128.32" r="0.72" fill="#4fe0d8" fill-opacity="0.55"/>
<circle cx="1526.20" cy="366.21" r="1.00" fill="#4fe0d8" fill-opacity="0.55"/>
<circle cx="382.19" cy="549.85" r="0.44" fill="#4fe0d8" fill-opacity="0.55"/>
<circle cx="263.11" cy="359.68" r="0.77" fill="#4fe0d8" fill-opacity="0.55"/>
<circle cx="1164.02" cy="556.75" r="0.89" fill="#4fe0d8" fill-opacity="0.55"/>
<circle cx="312.00" cy="1069.86" r="0.64" fill="#4fe0d8" fill-opacity="0.55"/>
<circle cx="645.84" cy="894.55" r="0.97" fill="#4fe0d8" fill-opacity="0.55"/>
<circle cx="575.60" cy="881.01" r="0.94" fill="#4fe0d8" fill-opacity="0.55"/>
<circle cx="1881.40" cy="630.40" r="0.98" fill="#4fe0d8" fill-opacity="0.55"/>
<circle cx="1321.04" cy="28.78" r="1.17" fill="#4fe0d8" fill-opacity="0.55"/>
<circle cx="1503.18" cy="838.25" r="0.98" fill="#4fe0d8" fill-opacity="0.55"/>
<circle cx="1120.36" cy="184.15" r="0.90" fill="#4fe0d8" fill-opacity="0.55"/>
<circle cx="1615.04" cy="159.60" r="0.43" fill="#4fe0d8" fill-opacity="0.55"/>
<circle cx="1820.55" cy="118.69" r="0.91" fill="#ff8a50" fill-opacity="0.55"/>
<circle cx="290.75" cy="745.74" r="1.02" fill="#4fe0d8" fill-opacity="0.55"/>
<circle cx="1767.40" cy="942.64" r="0.45" fill="#4fe0d8" fill-opacity="0.55"/>
<circle cx="265.12" cy="223.93" r="0.93" fill="#4fe0d8" fill-opacity="0.55"/>
<circle cx="1008.92" cy="338.85" r="1.13" fill="#4fe0d8" fill-opacity="0.55"/>
<circle cx="657.27" cy="382.63" r="0.98" fill="#4fe0d8" fill-opacity="0.55"/>
<circle cx="1235.15" cy="748.78" r="0.55" fill="#4fe0d8" fill-opacity="0.55"/>
<circle cx="473.32" cy="602.73" r="1.18" fill="#4fe0d8" fill-opacity="0.55"/>
<circle cx="571.42" cy="312.12" r="0.96" fill="#4fe0d8" fill-opacity="0.55"/>
<circle cx="608.72" cy="376.71" r="1.04" fill="#4fe0d8" fill-opacity="0.55"/>
<circle cx="525.04" cy="131.62" r="0.70" fill="#4fe0d8" fill-opacity="0.55"/>
<circle cx="1881.91" cy="883.85" r="1.04" fill="#4fe0d8" fill-opacity="0.55"/>
<circle cx="557.67" cy="310.64" r="0.68" fill="#4fe0d8" fill-opacity="0.55"/>
<circle cx="849.36" cy="276.96" r="0.56" fill="#4fe0d8" fill-opacity="0.55"/>
<circle cx="1034.07" cy="1007.67" r="0.51" fill="#4fe0d8" fill-opacity="0.55"/>
<circle cx="1182.10" cy="633.78" r="0.94" fill="#4fe0d8" fill-opacity="0.55"/>
<circle cx="1019.60" cy="688.98" r="1.01" fill="#ff8a50" fill-opacity="0.55"/>
<circle cx="1377.33" cy="108.59" r="0.40" fill="#4fe0d8" fill-opacity="0.55"/>

<defs>
  <radialGradient id="v" cx="50%" cy="50%" r="75%">
    <stop offset="60%" stop-color="#041021" stop-opacity="0.0"/>
    <stop offset="100%" stop-color="#041021" stop-opacity="0.6"/>
  </radialGradient>
</defs>
<rect width="100%" height="100%" fill="url(#v)" />
</svg>